<svg id="svg" version="1.1" xmlns="http://www.w3.org/2000/svg" xmlns:xlink="http://www.w3.org/1999/xlink" width="400" height="80" viewBox="0, 0, 400,80"><g id="svgg"><path id="path0" d="M4.200 4.200 C 3.909 4.491,3.909 75.509,4.200 75.800 C 4.548 76.148,75.765 76.084,75.899 75.736 C 76.110 75.186,76.012 4.412,75.800 4.200 C 75.509 3.909,4.491 3.909,4.200 4.200 M80.200 4.200 C 79.909 4.491,79.909 75.509,80.200 75.800 C 80.548 76.148,155.765 76.084,155.899 75.736 C 156.110 75.186,156.012 4.412,155.800 4.200 C 155.509 3.909,80.491 3.909,80.200 4.200 M160.200 4.200 C 159.909 4.491,159.909 75.509,160.200 75.800 C 160.548 76.148,235.765 76.084,235.899 75.736 C 236.110 75.186,236.012 4.412,235.800 4.200 C 235.509 3.909,160.491 3.909,160.200 4.200 M240.200 4.200 C 239.909 4.491,239.909 75.509,240.200 75.800 C 240.548 76.148,315.765 76.084,315.899 75.736 C 316.110 75.186,316.012 4.412,315.800 4.200 C 315.509 3.909,240.491 3.909,240.200 4.200 M320.200 4.200 C 319.909 4.491,319.909 75.509,320.200 75.800 C 320.491 76.091,396.342 76.091,396.633 75.800 C 396.924 75.509,396.924 4.491,396.633 4.200 C 396.342 3.909,320.491 3.909,320.200 4.200 " stroke="none" fill="acacac" fill-opacity="0.1" fill-rule="evenodd"></path><path id="path1" d="M0.000 40.000 L 0.000 80.000 200.000 80.000 L 400.000 80.000 400.000 40.000 L 400.000 0.000 200.000 0.000 L 0.000 0.000 0.000 40.000 M75.800 4.200 C 76.012 4.412,76.110 75.186,75.899 75.736 C 75.765 76.084,4.548 76.148,4.200 75.800 C 3.909 75.509,3.909 4.491,4.200 4.200 C 4.491 3.909,75.509 3.909,75.800 4.200 M155.800 4.200 C 156.012 4.412,156.110 75.186,155.899 75.736 C 155.765 76.084,80.548 76.148,80.200 75.800 C 79.909 75.509,79.909 4.491,80.200 4.200 C 80.491 3.909,155.509 3.909,155.800 4.200 M235.800 4.200 C 236.012 4.412,236.110 75.186,235.899 75.736 C 235.765 76.084,160.548 76.148,160.200 75.800 C 159.909 75.509,159.909 4.491,160.200 4.200 C 160.491 3.909,235.509 3.909,235.800 4.200 M315.800 4.200 C 316.012 4.412,316.110 75.186,315.899 75.736 C 315.765 76.084,240.548 76.148,240.200 75.800 C 239.909 75.509,239.909 4.491,240.200 4.200 C 240.491 3.909,315.509 3.909,315.800 4.200 M396.633 4.200 C 396.924 4.491,396.924 75.509,396.633 75.800 C 396.342 76.091,320.491 76.091,320.200 75.800 C 319.909 75.509,319.909 4.491,320.200 4.200 C 320.491 3.909,396.342 3.909,396.633 4.200 " stroke="none" fill="#040404" fill-rule="evenodd"></path></g></svg>