<svg id="svg" version="1.1" xmlns="http://www.w3.org/2000/svg" xmlns:xlink="http://www.w3.org/1999/xlink" width="400" height="400" viewBox="0, 0, 400,400"><g id="svgg"><path id="path0" d="M21.029 21.029 C 20.459 21.598,20.400 38.422,20.400 200.206 L 20.400 378.755 21.289 379.377 C 22.090 379.939,39.725 380.000,200.219 380.000 L 378.261 380.000 379.130 379.074 L 380.000 378.148 380.000 200.163 C 380.000 39.720,379.939 22.090,379.377 21.289 L 378.755 20.400 200.206 20.400 C 38.422 20.400,21.598 20.459,21.029 21.029 " stroke="none" fill="#7c3c04" fill-rule="evenodd"></path><path id="path1" d="M0.000 200.000 L 0.000 400.000 200.000 400.000 L 400.000 400.000 400.000 200.000 L 400.000 0.000 200.000 0.000 L 0.000 0.000 0.000 200.000 M379.377 21.289 C 379.939 22.090,380.000 39.720,380.000 200.163 L 380.000 378.148 379.130 379.074 L 378.261 380.000 200.219 380.000 C 39.725 380.000,22.090 379.939,21.289 379.377 L 20.400 378.755 20.400 200.206 C 20.400 38.422,20.459 21.598,21.029 21.029 C 21.598 20.459,38.422 20.400,200.206 20.400 L 378.755 20.400 379.377 21.289 " stroke="none" fill="#040404" fill-rule="evenodd"></path></g></svg>