<svg id="svg" version="1.1" xmlns="http://www.w3.org/2000/svg" xmlns:xlink="http://www.w3.org/1999/xlink" width="400" height="400" viewBox="0, 0, 400,400"><g id="svgg"><path id="path0" d="M16.880 16.880 C 16.048 17.712,16.196 382.539,17.029 383.371 C 18.143 384.485,382.085 384.315,383.200 383.200 C 384.315 382.085,384.485 18.143,383.371 17.029 C 382.539 16.196,17.712 16.048,16.880 16.880 M203.331 57.040 C 203.904 57.613,204.477 58.413,204.606 58.820 C 204.735 59.226,205.174 59.665,205.580 59.794 C 205.987 59.923,206.787 60.496,207.360 61.069 L 208.400 62.109 208.400 108.426 C 208.400 149.999,208.464 154.807,209.029 155.371 C 209.595 155.938,216.947 156.000,283.974 156.000 L 358.291 156.000 359.331 157.040 C 359.904 157.613,360.477 158.413,360.606 158.820 C 360.735 159.226,361.174 159.665,361.580 159.794 C 365.715 161.106,365.646 170.945,361.491 172.514 C 361.101 172.661,360.661 173.101,360.514 173.491 C 360.367 173.881,359.755 174.695,359.154 175.300 L 358.062 176.400 200.085 176.400 L 42.109 176.400 41.069 175.360 C 40.496 174.787,39.923 173.987,39.794 173.580 C 39.665 173.174,39.226 172.735,38.820 172.606 C 36.588 171.898,36.000 170.547,36.000 166.127 C 36.000 161.595,35.789 162.097,38.848 159.343 C 39.372 158.872,40.274 157.927,40.854 157.243 L 41.908 156.000 114.154 156.000 C 185.867 156.000,186.406 155.994,187.200 155.200 C 187.991 154.409,188.000 153.867,188.000 108.154 L 188.000 61.908 189.243 60.854 C 189.927 60.274,190.872 59.372,191.343 58.848 C 194.097 55.789,193.595 56.000,198.127 56.000 C 202.078 56.000,202.344 56.053,203.331 57.040 M307.331 221.040 C 307.904 221.613,308.477 222.413,308.606 222.820 C 308.735 223.226,309.174 223.665,309.580 223.794 C 313.715 225.106,313.646 234.945,309.491 236.514 C 309.101 236.661,308.661 237.101,308.514 237.491 C 308.367 237.881,307.755 238.695,307.154 239.300 L 306.062 240.400 202.085 240.400 L 98.109 240.400 97.069 239.360 C 96.496 238.787,95.923 237.987,95.794 237.580 C 95.665 237.174,95.226 236.735,94.820 236.606 C 92.584 235.897,92.000 234.549,92.000 230.099 L 92.000 225.908 93.243 224.854 C 93.927 224.274,94.872 223.372,95.343 222.848 C 95.814 222.325,96.597 221.470,97.082 220.948 L 97.964 220.000 202.127 220.000 L 306.291 220.000 307.331 221.040 M247.331 277.040 C 247.904 277.613,248.477 278.413,248.606 278.820 C 248.735 279.226,249.174 279.665,249.580 279.794 C 253.715 281.106,253.646 290.945,249.491 292.514 C 249.101 292.661,248.661 293.101,248.514 293.491 C 248.367 293.881,247.755 294.695,247.154 295.300 L 246.062 296.400 198.085 296.400 L 150.109 296.400 149.069 295.360 C 148.496 294.787,147.923 293.987,147.794 293.580 C 147.665 293.174,147.226 292.735,146.820 292.606 C 144.584 291.897,144.000 290.549,144.000 286.099 L 144.000 281.908 145.243 280.854 C 145.927 280.274,146.872 279.372,147.343 278.848 C 147.814 278.325,148.597 277.470,149.082 276.948 L 149.964 276.000 198.127 276.000 L 246.291 276.000 247.331 277.040 " stroke="none" fill="#fcfcfc" fill-opacity="0.5" fill-rule="evenodd"></path><path id="path1" d="M0.000 200.000 L 0.000 400.000 200.000 400.000 L 400.000 400.000 400.000 200.000 L 400.000 0.000 200.000 0.000 L 0.000 0.000 0.000 200.000 M383.371 17.029 C 384.485 18.143,384.315 382.085,383.200 383.200 C 382.085 384.315,18.143 384.485,17.029 383.371 C 16.196 382.539,16.048 17.712,16.880 16.880 C 17.712 16.048,382.539 16.196,383.371 17.029 M193.082 56.948 C 192.597 57.470,191.814 58.325,191.343 58.848 C 190.872 59.372,189.927 60.274,189.243 60.854 L 188.000 61.908 188.000 108.154 C 188.000 153.867,187.991 154.409,187.200 155.200 C 186.406 155.994,185.867 156.000,114.154 156.000 L 41.908 156.000 40.854 157.243 C 40.274 157.927,39.372 158.872,38.848 159.343 C 35.789 162.097,36.000 161.595,36.000 166.127 C 36.000 170.547,36.588 171.898,38.820 172.606 C 39.226 172.735,39.665 173.174,39.794 173.580 C 39.923 173.987,40.496 174.787,41.069 175.360 L 42.109 176.400 200.085 176.400 L 358.062 176.400 359.154 175.300 C 359.755 174.695,360.367 173.881,360.514 173.491 C 360.661 173.101,361.101 172.661,361.491 172.514 C 365.646 170.945,365.715 161.106,361.580 159.794 C 361.174 159.665,360.735 159.226,360.606 158.820 C 360.477 158.413,359.904 157.613,359.331 157.040 L 358.291 156.000 283.974 156.000 C 216.947 156.000,209.595 155.938,209.029 155.371 C 208.464 154.807,208.400 149.999,208.400 108.426 L 208.400 62.109 207.360 61.069 C 206.787 60.496,205.987 59.923,205.580 59.794 C 205.174 59.665,204.735 59.226,204.606 58.820 C 203.677 55.893,195.324 54.537,193.082 56.948 M97.082 220.948 C 96.597 221.470,95.814 222.325,95.343 222.848 C 94.872 223.372,93.927 224.274,93.243 224.854 L 92.000 225.908 92.000 230.099 C 92.000 234.549,92.584 235.897,94.820 236.606 C 95.226 236.735,95.665 237.174,95.794 237.580 C 95.923 237.987,96.496 238.787,97.069 239.360 L 98.109 240.400 202.085 240.400 L 306.062 240.400 307.154 239.300 C 307.755 238.695,308.367 237.881,308.514 237.491 C 308.661 237.101,309.101 236.661,309.491 236.514 C 313.646 234.945,313.715 225.106,309.580 223.794 C 309.174 223.665,308.735 223.226,308.606 222.820 C 308.477 222.413,307.904 221.613,307.331 221.040 L 306.291 220.000 202.127 220.000 L 97.964 220.000 97.082 220.948 M149.082 276.948 C 148.597 277.470,147.814 278.325,147.343 278.848 C 146.872 279.372,145.927 280.274,145.243 280.854 L 144.000 281.908 144.000 286.099 C 144.000 290.549,144.584 291.897,146.820 292.606 C 147.226 292.735,147.665 293.174,147.794 293.580 C 147.923 293.987,148.496 294.787,149.069 295.360 L 150.109 296.400 198.085 296.400 L 246.062 296.400 247.154 295.300 C 247.755 294.695,248.367 293.881,248.514 293.491 C 248.661 293.101,249.101 292.661,249.491 292.514 C 253.646 290.945,253.715 281.106,249.580 279.794 C 249.174 279.665,248.735 279.226,248.606 278.820 C 248.477 278.413,247.904 277.613,247.331 277.040 L 246.291 276.000 198.127 276.000 L 149.964 276.000 149.082 276.948 " stroke="none" fill="#040404" fill-rule="evenodd"></path></g></svg>