<svg id="svg" version="1.1" xmlns="http://www.w3.org/2000/svg" xmlns:xlink="http://www.w3.org/1999/xlink" width="400" height="265.78073089700996" viewBox="0, 0, 400,265.78073089700996"><g id="svgg"><path id="path0" d="M5.704 7.242 C 5.635 7.425,5.609 34.784,5.646 68.040 L 5.714 128.505 67.774 128.505 L 129.834 128.505 129.834 67.774 L 129.834 7.043 67.832 6.976 C 18.371 6.923,5.805 6.976,5.704 7.242 M268.827 7.242 C 268.758 7.425,268.732 34.784,268.769 68.040 L 268.837 128.505 330.897 128.505 L 392.957 128.505 392.957 67.774 L 392.957 7.043 330.955 6.976 C 281.494 6.923,268.928 6.976,268.827 7.242 " stroke="none" fill="#fcfcfc" fill-rule="evenodd"></path><path id="path1" d="M0.000 132.890 L 0.000 265.781 200.000 265.781 L 400.000 265.781 400.000 132.890 L 400.000 0.000 200.000 0.000 L 0.000 0.000 0.000 132.890 M262.804 6.963 C 263.268 7.428,263.268 128.120,262.804 128.585 C 262.340 129.049,136.331 129.049,135.867 128.585 C 135.403 128.120,135.403 7.428,135.867 6.963 C 136.331 6.499,262.340 6.499,262.804 6.963 M129.834 67.774 L 129.834 128.505 67.774 128.505 L 5.714 128.505 5.646 68.040 C 5.609 34.784,5.635 7.425,5.704 7.242 C 5.805 6.976,18.371 6.923,67.832 6.976 L 129.834 7.043 129.834 67.774 M392.957 67.774 L 392.957 128.505 330.897 128.505 L 268.837 128.505 268.769 68.040 C 268.732 34.784,268.758 7.425,268.827 7.242 C 268.928 6.976,281.494 6.923,330.955 6.976 L 392.957 7.043 392.957 67.774 M129.901 135.768 C 130.166 135.936,130.220 148.590,130.167 198.156 L 130.100 260.332 67.923 260.399 C 18.357 260.453,5.703 260.399,5.535 260.133 C 5.165 259.551,5.264 136.238,5.635 135.867 C 6.005 135.496,129.318 135.398,129.901 135.768 M392.957 198.007 L 392.957 260.066 330.897 260.066 L 268.837 260.066 268.769 198.272 C 268.732 164.286,268.758 136.329,268.827 136.146 C 268.928 135.880,281.494 135.826,330.955 135.880 L 392.957 135.947 392.957 198.007 " stroke="none" fill="#7c7c7c" fill-rule="evenodd"></path><path id="path2" d="M5.635 135.867 C 5.264 136.238,5.165 259.551,5.535 260.133 C 5.703 260.399,18.357 260.453,67.923 260.399 L 130.100 260.332 130.167 198.156 C 130.220 148.590,130.166 135.936,129.901 135.768 C 129.318 135.398,6.005 135.496,5.635 135.867 " stroke="none" fill="#fc0474" fill-rule="evenodd"></path><path id="path3" d="M268.827 136.146 C 268.758 136.329,268.732 164.286,268.769 198.272 L 268.837 260.066 330.897 260.066 L 392.957 260.066 392.957 198.007 L 392.957 135.947 330.955 135.880 C 281.494 135.826,268.928 135.880,268.827 136.146 " stroke="none" fill="#74fcfc" fill-rule="evenodd"></path><path id="path4" d="M135.867 6.963 C 135.403 7.428,135.403 128.120,135.867 128.585 C 136.331 129.049,262.340 129.049,262.804 128.585 C 263.268 128.120,263.268 7.428,262.804 6.963 C 262.340 6.499,136.331 6.499,135.867 6.963 " stroke="none" fill="#04fc7c" fill-rule="evenodd"></path></g></svg>