<svg id="svg" version="1.1" xmlns="http://www.w3.org/2000/svg" xmlns:xlink="http://www.w3.org/1999/xlink" width="400" height="400" viewBox="0, 0, 400,400"><g id="svgg"><path id="path0" d="M16.880 16.880 C 16.048 17.712,16.196 382.539,17.029 383.371 C 18.143 384.485,382.085 384.315,383.200 383.200 C 384.315 382.085,384.485 18.143,383.371 17.029 C 382.539 16.196,17.712 16.048,16.880 16.880 M323.345 49.055 L 324.400 50.109 324.400 68.085 L 324.400 86.062 323.231 87.231 L 322.062 88.400 267.711 88.400 C 225.971 88.400,213.249 88.511,212.880 88.880 C 212.509 89.251,212.400 117.082,212.400 211.711 L 212.400 334.062 211.231 335.231 L 210.062 336.400 198.085 336.400 L 186.109 336.400 185.055 335.345 L 184.000 334.291 184.000 211.974 C 184.000 101.310,183.940 89.597,183.371 89.029 C 182.806 88.463,177.090 88.400,126.426 88.400 L 70.109 88.400 69.055 87.345 L 68.000 86.291 68.000 68.127 L 68.000 49.964 68.982 48.982 L 69.964 48.000 196.127 48.000 L 322.291 48.000 323.345 49.055 " stroke="none" fill="#fcfcfc" fill-opacity="0.5" fill-rule="evenodd"></path><path id="path1" d="M0.000 200.000 L 0.000 400.000 200.000 400.000 L 400.000 400.000 400.000 200.000 L 400.000 0.000 200.000 0.000 L 0.000 0.000 0.000 200.000 M383.371 17.029 C 384.485 18.143,384.315 382.085,383.200 383.200 C 382.085 384.315,18.143 384.485,17.029 383.371 C 16.196 382.539,16.048 17.712,16.880 16.880 C 17.712 16.048,382.539 16.196,383.371 17.029 M68.982 48.982 L 68.000 49.964 68.000 68.127 L 68.000 86.291 69.055 87.345 L 70.109 88.400 126.426 88.400 C 177.090 88.400,182.806 88.463,183.371 89.029 C 183.940 89.597,184.000 101.310,184.000 211.974 L 184.000 334.291 185.055 335.345 L 186.109 336.400 198.085 336.400 L 210.062 336.400 211.231 335.231 L 212.400 334.062 212.400 211.711 C 212.400 117.082,212.509 89.251,212.880 88.880 C 213.249 88.511,225.971 88.400,267.711 88.400 L 322.062 88.400 323.231 87.231 L 324.400 86.062 324.400 68.085 L 324.400 50.109 323.345 49.055 L 322.291 48.000 196.127 48.000 L 69.964 48.000 68.982 48.982 " stroke="none" fill="#040404" fill-rule="evenodd"></path></g></svg>