<svg id="svg" version="1.1" xmlns="http://www.w3.org/2000/svg" xmlns:xlink="http://www.w3.org/1999/xlink" width="400" height="400" viewBox="0, 0, 400,400"><g id="svgg"><path id="path0" d="M0.000 200.000 L 0.000 400.000 200.000 400.000 L 400.000 400.000 400.000 200.000 L 400.000 0.000 200.000 0.000 L 0.000 0.000 0.000 200.000 M379.371 21.029 C 380.485 22.143,380.315 378.085,379.200 379.200 C 378.085 380.315,22.143 380.485,21.029 379.371 C 20.196 378.539,20.048 21.712,20.880 20.880 C 21.712 20.048,378.539 20.196,379.371 21.029 M188.800 128.673 C 187.761 129.213,187.236 129.864,186.765 131.200 C 186.415 132.190,185.993 133.360,185.827 133.800 C 184.979 136.046,184.787 136.850,184.393 139.800 C 183.681 145.124,182.734 149.888,182.335 150.153 C 180.047 151.668,179.637 151.765,174.400 152.042 C 165.731 152.500,165.600 152.592,165.600 158.214 C 165.600 164.141,166.904 165.200,174.205 165.200 C 181.634 165.200,181.152 162.732,181.324 201.600 C 181.457 231.738,181.484 232.683,182.307 235.600 C 182.773 237.250,183.436 239.650,183.780 240.933 C 184.447 243.415,184.889 244.414,185.697 245.269 C 185.974 245.561,187.124 246.881,188.254 248.201 C 190.075 250.330,192.946 252.400,194.077 252.400 C 194.575 252.400,197.327 253.664,197.600 254.018 C 199.760 256.818,226.197 256.535,234.800 253.620 C 236.010 253.210,237.720 252.761,238.600 252.621 C 243.233 251.886,243.600 251.393,243.600 245.891 C 243.600 239.292,243.728 239.344,230.400 240.587 C 211.412 242.359,206.397 241.761,202.054 237.210 C 198.946 233.952,198.803 232.252,198.801 198.475 L 198.800 169.950 199.808 167.820 C 201.115 165.056,200.020 165.212,218.233 165.205 C 240.089 165.198,239.600 165.362,239.600 158.030 C 239.600 151.886,240.035 152.006,217.594 152.002 C 202.926 152.000,201.687 151.946,200.394 151.253 L 199.000 150.505 198.893 140.030 L 198.787 129.554 197.319 128.940 C 194.938 127.946,190.471 127.805,188.800 128.673 " stroke="none" fill="#040404" fill-rule="evenodd"></path><path id="path1" d="M20.880 20.880 C 20.048 21.712,20.196 378.539,21.029 379.371 C 22.143 380.485,378.085 380.315,379.200 379.200 C 380.315 378.085,380.485 22.143,379.371 21.029 C 378.539 20.196,21.712 20.048,20.880 20.880 M197.319 128.940 L 198.787 129.554 198.893 140.030 L 199.000 150.505 200.394 151.253 C 201.687 151.946,202.926 152.000,217.594 152.002 C 240.035 152.006,239.600 151.886,239.600 158.030 C 239.600 165.362,240.089 165.198,218.233 165.205 C 200.020 165.212,201.115 165.056,199.808 167.820 L 198.800 169.950 198.801 198.475 C 198.803 232.252,198.946 233.952,202.054 237.210 C 206.397 241.761,211.412 242.359,230.400 240.587 C 243.728 239.344,243.600 239.292,243.600 245.891 C 243.600 251.393,243.233 251.886,238.600 252.621 C 237.720 252.761,236.010 253.210,234.800 253.620 C 226.197 256.535,199.760 256.818,197.600 254.018 C 197.327 253.664,194.575 252.400,194.077 252.400 C 192.946 252.400,190.075 250.330,188.254 248.201 C 187.124 246.881,185.974 245.561,185.697 245.269 C 184.889 244.414,184.447 243.415,183.780 240.933 C 183.436 239.650,182.773 237.250,182.307 235.600 C 181.484 232.683,181.457 231.738,181.324 201.600 C 181.152 162.732,181.634 165.200,174.205 165.200 C 166.904 165.200,165.600 164.141,165.600 158.214 C 165.600 152.592,165.731 152.500,174.400 152.042 C 179.637 151.765,180.047 151.668,182.335 150.153 C 182.734 149.888,183.681 145.124,184.393 139.800 C 184.787 136.850,184.979 136.046,185.827 133.800 C 185.993 133.360,186.415 132.190,186.765 131.200 C 187.875 128.054,192.716 127.017,197.319 128.940 " stroke="none" fill="#fc7c34" fill-rule="evenodd"></path></g></svg>