<svg id="svg" version="1.1" xmlns="http://www.w3.org/2000/svg" xmlns:xlink="http://www.w3.org/1999/xlink" width="400" height="265.78073089700996" viewBox="0, 0, 400,265.78073089700996"><g id="svgg"><path id="path0" d="M130.498 64.266 C 130.498 113.896,130.426 128.604,130.179 128.850 C 129.933 129.097,115.077 129.169,64.930 129.169 L 0.000 129.169 0.000 197.475 L 0.000 265.781 200.000 265.781 L 400.000 265.781 400.000 197.475 L 400.000 129.169 334.405 129.169 C 283.742 129.169,268.738 129.097,268.492 128.850 C 268.245 128.604,268.173 113.896,268.173 64.266 L 268.173 0.000 199.336 0.000 L 130.498 0.000 130.498 64.266 M263.070 6.963 C 263.641 7.534,263.521 128.051,262.949 128.683 C 262.394 129.296,136.479 129.462,135.867 128.850 C 135.519 128.502,135.378 7.169,135.725 6.822 C 136.073 6.474,262.721 6.615,263.070 6.963 M129.901 135.768 C 130.166 135.936,130.220 148.590,130.167 198.156 L 130.100 260.332 67.923 260.399 C 18.357 260.453,5.703 260.399,5.535 260.133 C 5.165 259.551,5.264 136.238,5.635 135.867 C 6.005 135.496,129.318 135.398,129.901 135.768 M262.791 198.074 L 262.858 260.200 199.403 260.133 L 135.947 260.066 135.879 198.272 C 135.841 164.286,135.868 136.329,135.937 136.146 C 136.038 135.880,148.869 135.826,199.394 135.880 L 262.724 135.947 262.791 198.074 " stroke="none" fill-opacity="0.75" fill="#006600" fill-rule="evenodd"></path><path id="path1" d="M0.000 64.319 L 0.000 128.639 64.917 128.572 L 129.834 128.505 129.901 64.252 L 129.968 0.000 64.984 0.000 L 0.000 0.000 0.000 64.319 M268.770 64.252 L 268.837 128.505 334.419 128.572 L 400.000 128.639 400.000 64.319 L 400.000 0.000 334.352 0.000 L 268.703 0.000 268.770 64.252 " stroke="none" fill="none" fill-rule="evenodd"></path><path id="path2" d="M129.901 64.252 L 129.834 128.505 64.917 128.572 C 21.948 128.616,0.000 128.729,0.000 128.904 C 0.000 129.320,129.763 129.267,130.179 128.850 C 130.596 128.434,130.649 -0.000,130.233 0.000 C 130.058 0.000,129.945 21.727,129.901 64.252 M268.173 64.266 C 268.173 113.896,268.245 128.604,268.492 128.850 C 268.908 129.267,400.000 129.320,400.000 128.904 C 400.000 128.729,377.830 128.616,334.419 128.572 L 268.837 128.505 268.770 64.252 C 268.726 21.727,268.614 0.000,268.438 0.000 C 268.262 0.000,268.173 21.687,268.173 64.266 M135.937 136.146 C 135.868 136.329,135.841 164.286,135.879 198.272 L 135.947 260.066 199.403 260.133 L 262.858 260.200 262.791 198.074 L 262.724 135.947 199.394 135.880 C 148.869 135.826,136.038 135.880,135.937 136.146 " stroke="none" fill="#afafaf" fill-opacity="1" fill-rule="evenodd"></path><path id="path3" d="M135.725 6.822 C 135.378 7.169,135.519 128.502,135.867 128.850 C 136.479 129.462,262.394 129.296,262.949 128.683 C 263.521 128.051,263.641 7.534,263.070 6.963 C 262.721 6.615,136.073 6.474,135.725 6.822 " stroke="none" fill="#0000ff" fill-opacity="1" fill-rule="evenodd"></path><path id="path4" d="M5.635 135.867 C 5.264 136.238,5.165 259.551,5.535 260.133 C 5.703 260.399,18.357 260.453,67.923 260.399 L 130.100 260.332 130.167 198.156 C 130.220 148.590,130.166 135.936,129.901 135.768 C 129.318 135.398,6.005 135.496,5.635 135.867 " stroke="none" fill="#006600" fill-opacity="0.75" fill-rule="evenodd"></path></g></svg>