<svg id="svg" version="1.1" xmlns="http://www.w3.org/2000/svg" xmlns:xlink="http://www.w3.org/1999/xlink" width="400" height="400" viewBox="0, 0, 400,400"><g id="svgg"><path id="path0" d="M16.880 16.880 C 16.048 17.712,16.196 382.539,17.029 383.371 C 18.143 384.485,382.085 384.315,383.200 383.200 C 384.315 382.085,384.485 18.143,383.371 17.029 C 382.539 16.196,17.712 16.048,16.880 16.880 M83.331 37.040 C 83.904 37.613,84.477 38.413,84.606 38.820 C 84.735 39.226,85.174 39.665,85.580 39.794 C 87.411 40.375,88.400 42.000,88.400 44.426 C 88.400 46.605,89.014 48.000,89.974 48.000 C 91.597 48.000,92.400 50.127,92.400 54.426 C 92.400 58.635,92.785 60.000,93.974 60.000 C 95.194 60.000,96.400 62.200,96.400 64.426 C 96.400 66.605,97.014 68.000,97.974 68.000 C 99.597 68.000,100.400 70.127,100.400 74.426 C 100.400 78.635,100.785 80.000,101.974 80.000 C 103.194 80.000,104.400 82.200,104.400 84.426 C 104.400 86.605,105.014 88.000,105.974 88.000 C 107.597 88.000,108.400 90.127,108.400 94.426 C 108.400 98.635,108.785 100.000,109.974 100.000 C 111.194 100.000,112.400 102.200,112.400 104.426 C 112.400 106.605,113.014 108.000,113.974 108.000 C 115.597 108.000,116.400 110.127,116.400 114.426 C 116.400 118.635,116.785 120.000,117.974 120.000 C 119.194 120.000,120.400 122.200,120.400 124.426 C 120.400 126.605,121.014 128.000,121.974 128.000 C 123.597 128.000,124.400 130.127,124.400 134.426 C 124.400 138.635,124.785 140.000,125.974 140.000 C 127.194 140.000,128.400 142.200,128.400 144.426 C 128.400 146.605,129.014 148.000,129.974 148.000 C 131.597 148.000,132.400 150.127,132.400 154.426 C 132.400 158.635,132.785 160.000,133.974 160.000 C 135.194 160.000,136.400 162.200,136.400 164.426 C 136.400 166.605,137.014 168.000,137.974 168.000 C 139.597 168.000,140.400 170.127,140.400 174.426 C 140.400 178.635,140.785 180.000,141.974 180.000 C 143.194 180.000,144.400 182.200,144.400 184.426 C 144.400 186.605,145.014 188.000,145.974 188.000 C 147.597 188.000,148.400 190.127,148.400 194.426 C 148.400 198.635,148.785 200.000,149.974 200.000 C 151.194 200.000,152.400 202.200,152.400 204.426 C 152.400 206.605,153.014 208.000,153.974 208.000 C 155.597 208.000,156.400 210.127,156.400 214.426 C 156.400 218.635,156.785 220.000,157.974 220.000 C 159.194 220.000,160.400 222.200,160.400 224.426 C 160.400 226.605,161.014 228.000,161.974 228.000 C 163.597 228.000,164.400 230.127,164.400 234.426 C 164.400 238.635,164.785 240.000,165.974 240.000 C 167.194 240.000,168.400 242.200,168.400 244.426 C 168.400 246.605,169.014 248.000,169.974 248.000 C 171.597 248.000,172.400 250.127,172.400 254.426 C 172.400 258.635,172.785 260.000,173.974 260.000 C 175.194 260.000,176.400 262.200,176.400 264.426 C 176.400 266.605,177.014 268.000,177.974 268.000 C 179.597 268.000,180.400 270.127,180.400 274.426 C 180.400 278.635,180.785 280.000,181.974 280.000 C 183.194 280.000,184.400 282.200,184.400 284.426 C 184.400 286.605,185.014 288.000,185.974 288.000 C 187.597 288.000,188.400 290.127,188.400 294.426 C 188.400 298.635,188.785 300.000,189.974 300.000 C 191.194 300.000,192.400 302.200,192.400 304.426 C 192.400 306.605,193.014 308.000,193.974 308.000 C 195.597 308.000,196.400 310.127,196.400 314.426 C 196.400 318.635,196.785 320.000,197.974 320.000 C 199.194 320.000,200.400 322.200,200.400 324.426 C 200.400 327.675,201.568 328.832,203.200 327.200 C 203.808 326.592,204.000 325.867,204.000 324.182 C 204.000 321.858,204.109 321.679,206.948 319.330 C 207.856 318.580,208.000 318.153,208.000 316.212 C 208.000 313.854,208.103 313.684,210.948 311.330 C 211.963 310.491,212.000 310.312,212.000 306.212 C 212.000 301.584,211.877 301.870,214.948 299.330 C 215.856 298.580,216.000 298.153,216.000 296.212 C 216.000 293.854,216.103 293.684,218.948 291.330 C 219.963 290.491,220.000 290.312,220.000 286.212 C 220.000 281.584,219.877 281.870,222.948 279.330 C 223.856 278.580,224.000 278.153,224.000 276.212 C 224.000 273.854,224.103 273.684,226.948 271.330 C 227.963 270.491,228.000 270.312,228.000 266.212 C 228.000 261.584,227.877 261.870,230.948 259.330 C 231.856 258.580,232.000 258.153,232.000 256.212 C 232.000 253.854,232.103 253.684,234.948 251.330 C 235.963 250.491,236.000 250.312,236.000 246.212 C 236.000 241.584,235.877 241.870,238.948 239.330 C 239.856 238.580,240.000 238.153,240.000 236.212 C 240.000 233.854,240.103 233.684,242.948 231.330 C 243.856 230.580,244.000 230.153,244.000 228.212 C 244.000 225.854,244.103 225.684,246.948 223.330 C 247.963 222.491,248.000 222.312,248.000 218.212 C 248.000 213.584,247.877 213.870,250.948 211.330 C 251.856 210.580,252.000 210.153,252.000 208.212 C 252.000 205.854,252.103 205.684,254.948 203.330 C 255.963 202.491,256.000 202.312,256.000 198.212 C 256.000 193.584,255.877 193.870,258.948 191.330 C 259.856 190.580,260.000 190.153,260.000 188.212 C 260.000 185.854,260.103 185.684,262.948 183.330 C 263.963 182.491,264.000 182.312,264.000 178.212 C 264.000 173.584,263.877 173.870,266.948 171.330 C 267.856 170.580,268.000 170.153,268.000 168.212 C 268.000 165.854,268.103 165.684,270.948 163.330 C 271.856 162.580,272.000 162.153,272.000 160.212 C 272.000 157.854,272.103 157.684,274.948 155.330 C 275.963 154.491,276.000 154.312,276.000 150.212 C 276.000 145.584,275.877 145.870,278.948 143.330 C 279.856 142.580,280.000 142.153,280.000 140.212 C 280.000 137.854,280.103 137.684,282.948 135.330 C 283.963 134.491,284.000 134.312,284.000 130.212 C 284.000 125.584,283.877 125.870,286.948 123.330 C 287.856 122.580,288.000 122.153,288.000 120.212 C 288.000 117.854,288.103 117.684,290.948 115.330 C 291.963 114.491,292.000 114.312,292.000 110.212 C 292.000 105.584,291.877 105.870,294.948 103.330 C 295.856 102.580,296.000 102.153,296.000 100.212 C 296.000 97.854,296.103 97.684,298.948 95.330 C 299.963 94.491,300.000 94.312,300.000 90.212 C 300.000 85.584,299.877 85.870,302.948 83.330 C 303.856 82.580,304.000 82.153,304.000 80.212 C 304.000 77.854,304.103 77.684,306.948 75.330 C 307.856 74.580,308.000 74.153,308.000 72.212 C 308.000 69.854,308.103 69.684,310.948 67.330 C 311.963 66.491,312.000 66.312,312.000 62.212 C 312.000 57.584,311.877 57.870,314.948 55.330 C 315.856 54.580,316.000 54.153,316.000 52.212 C 316.000 49.854,316.103 49.684,318.948 47.330 C 319.859 46.577,320.000 46.155,320.000 44.184 C 320.000 42.130,320.121 41.805,321.243 40.854 C 321.927 40.274,322.872 39.372,323.343 38.848 C 326.150 35.731,325.319 36.000,332.127 36.000 C 338.254 36.000,338.297 36.006,339.345 37.055 L 340.400 38.109 340.400 46.085 L 340.400 54.062 339.285 55.131 C 338.671 55.719,337.816 56.399,337.385 56.642 C 336.760 56.993,336.576 57.594,336.480 59.593 C 336.355 62.180,335.619 63.382,333.385 64.643 C 332.690 65.035,332.587 65.599,332.486 69.587 C 332.365 74.391,332.031 75.152,329.385 76.642 C 328.760 76.993,328.576 77.594,328.480 79.593 C 328.355 82.180,327.617 83.385,325.385 84.642 C 324.760 84.993,324.576 85.594,324.480 87.593 C 324.355 90.180,323.619 91.382,321.385 92.643 C 320.690 93.035,320.587 93.599,320.486 97.587 C 320.365 102.391,320.031 103.152,317.385 104.642 C 316.760 104.993,316.576 105.594,316.480 107.593 C 316.355 110.180,315.619 111.382,313.385 112.643 C 312.690 113.035,312.587 113.599,312.486 117.587 C 312.365 122.391,312.031 123.152,309.385 124.642 C 308.760 124.993,308.576 125.594,308.480 127.593 C 308.355 130.180,307.619 131.382,305.385 132.643 C 304.690 133.035,304.587 133.599,304.486 137.587 C 304.365 142.391,304.031 143.152,301.385 144.642 C 300.760 144.993,300.576 145.594,300.480 147.593 C 300.355 150.180,299.619 151.382,297.385 152.643 C 296.690 153.035,296.587 153.599,296.486 157.587 C 296.365 162.391,296.031 163.152,293.385 164.642 C 292.760 164.993,292.576 165.594,292.480 167.593 C 292.355 170.180,291.617 171.385,289.385 172.642 C 288.760 172.993,288.576 173.594,288.480 175.593 C 288.355 178.180,287.619 179.382,285.385 180.643 C 284.690 181.035,284.587 181.599,284.486 185.587 C 284.365 190.391,284.031 191.152,281.385 192.642 C 280.760 192.993,280.576 193.594,280.480 195.593 C 280.355 198.180,279.619 199.382,277.385 200.643 C 276.690 201.035,276.587 201.599,276.486 205.587 C 276.365 210.391,276.031 211.152,273.385 212.642 C 272.760 212.993,272.576 213.594,272.480 215.593 C 272.355 218.180,271.619 219.382,269.385 220.643 C 268.690 221.035,268.587 221.599,268.486 225.587 C 268.365 230.391,268.031 231.152,265.385 232.642 C 264.760 232.993,264.576 233.594,264.480 235.593 C 264.355 238.180,263.617 239.385,261.385 240.642 C 260.760 240.993,260.576 241.594,260.480 243.593 C 260.355 246.180,259.619 247.382,257.385 248.643 C 256.690 249.035,256.587 249.599,256.486 253.587 C 256.365 258.391,256.031 259.152,253.385 260.642 C 252.760 260.993,252.576 261.594,252.480 263.593 C 252.355 266.180,251.619 267.382,249.385 268.643 C 248.690 269.035,248.587 269.599,248.486 273.587 C 248.365 278.391,248.031 279.152,245.385 280.642 C 244.760 280.993,244.576 281.594,244.480 283.593 C 244.355 286.180,243.619 287.382,241.385 288.643 C 240.690 289.035,240.587 289.599,240.486 293.587 C 240.365 298.391,240.031 299.152,237.385 300.642 C 236.760 300.993,236.576 301.594,236.480 303.593 C 236.355 306.180,235.619 307.382,233.385 308.643 C 232.690 309.035,232.587 309.599,232.486 313.587 C 232.365 318.391,232.031 319.152,229.385 320.642 C 228.760 320.993,228.576 321.594,228.480 323.593 C 228.355 326.180,227.617 327.385,225.385 328.642 C 224.760 328.993,224.576 329.594,224.480 331.593 C 224.355 334.180,223.619 335.382,221.385 336.643 C 220.690 337.035,220.587 337.599,220.486 341.587 C 220.365 346.391,220.031 347.152,217.385 348.642 C 216.760 348.993,216.576 349.594,216.480 351.593 C 216.355 354.180,215.617 355.385,213.385 356.642 C 212.760 356.993,212.576 357.594,212.480 359.593 C 212.355 362.182,211.370 363.804,209.491 364.514 C 209.101 364.661,208.661 365.101,208.514 365.491 C 206.945 369.646,197.106 369.715,195.794 365.580 C 195.665 365.174,195.226 364.735,194.820 364.606 C 192.989 364.025,192.000 362.400,192.000 359.974 C 192.000 357.795,191.386 356.400,190.426 356.400 C 189.206 356.400,188.000 354.200,188.000 351.974 C 188.000 349.795,187.386 348.400,186.426 348.400 C 184.803 348.400,184.000 346.273,184.000 341.974 C 184.000 337.765,183.615 336.400,182.426 336.400 C 181.206 336.400,180.000 334.200,180.000 331.974 C 180.000 329.795,179.386 328.400,178.426 328.400 C 176.803 328.400,176.000 326.273,176.000 321.974 C 176.000 317.765,175.615 316.400,174.426 316.400 C 173.206 316.400,172.000 314.200,172.000 311.974 C 172.000 309.795,171.386 308.400,170.426 308.400 C 168.803 308.400,168.000 306.273,168.000 301.974 C 168.000 297.765,167.615 296.400,166.426 296.400 C 165.206 296.400,164.000 294.200,164.000 291.974 C 164.000 289.795,163.386 288.400,162.426 288.400 C 160.803 288.400,160.000 286.273,160.000 281.974 C 160.000 277.765,159.615 276.400,158.426 276.400 C 157.206 276.400,156.000 274.200,156.000 271.974 C 156.000 269.795,155.386 268.400,154.426 268.400 C 152.803 268.400,152.000 266.273,152.000 261.974 C 152.000 257.765,151.615 256.400,150.426 256.400 C 149.206 256.400,148.000 254.200,148.000 251.974 C 148.000 249.795,147.386 248.400,146.426 248.400 C 144.803 248.400,144.000 246.273,144.000 241.974 C 144.000 237.765,143.615 236.400,142.426 236.400 C 141.206 236.400,140.000 234.200,140.000 231.974 C 140.000 229.795,139.386 228.400,138.426 228.400 C 136.803 228.400,136.000 226.273,136.000 221.974 C 136.000 217.765,135.615 216.400,134.426 216.400 C 133.206 216.400,132.000 214.200,132.000 211.974 C 132.000 209.795,131.386 208.400,130.426 208.400 C 128.803 208.400,128.000 206.273,128.000 201.974 C 128.000 197.765,127.615 196.400,126.426 196.400 C 125.206 196.400,124.000 194.200,124.000 191.974 C 124.000 189.795,123.386 188.400,122.426 188.400 C 120.803 188.400,120.000 186.273,120.000 181.974 C 120.000 177.765,119.615 176.400,118.426 176.400 C 117.206 176.400,116.000 174.200,116.000 171.974 C 116.000 169.795,115.386 168.400,114.426 168.400 C 112.803 168.400,112.000 166.273,112.000 161.974 C 112.000 157.765,111.615 156.400,110.426 156.400 C 109.206 156.400,108.000 154.200,108.000 151.974 C 108.000 149.795,107.386 148.400,106.426 148.400 C 104.803 148.400,104.000 146.273,104.000 141.974 C 104.000 137.765,103.615 136.400,102.426 136.400 C 101.206 136.400,100.000 134.200,100.000 131.974 C 100.000 129.795,99.386 128.400,98.426 128.400 C 96.803 128.400,96.000 126.273,96.000 121.974 C 96.000 117.765,95.615 116.400,94.426 116.400 C 93.206 116.400,92.000 114.200,92.000 111.974 C 92.000 109.795,91.386 108.400,90.426 108.400 C 88.803 108.400,88.000 106.273,88.000 101.974 C 88.000 97.765,87.615 96.400,86.426 96.400 C 85.206 96.400,84.000 94.200,84.000 91.974 C 84.000 89.795,83.386 88.400,82.426 88.400 C 80.803 88.400,80.000 86.273,80.000 81.974 C 80.000 77.765,79.615 76.400,78.426 76.400 C 77.206 76.400,76.000 74.200,76.000 71.974 C 76.000 69.795,75.386 68.400,74.426 68.400 C 72.803 68.400,72.000 66.273,72.000 61.974 C 72.000 57.765,71.615 56.400,70.426 56.400 C 70.252 56.400,69.635 55.925,69.055 55.345 L 68.000 54.291 68.000 46.127 C 68.000 35.396,67.515 36.000,76.127 36.000 C 82.232 36.000,82.301 36.010,83.331 37.040 " stroke="none" fill="#fcfcfc" fill-opacity="0.5" fill-rule="evenodd"></path><path id="path1" d="M0.000 200.000 L 0.000 400.000 200.000 400.000 L 400.000 400.000 400.000 200.000 L 400.000 0.000 200.000 0.000 L 0.000 0.000 0.000 200.000 M383.371 17.029 C 384.485 18.143,384.315 382.085,383.200 383.200 C 382.085 384.315,18.143 384.485,17.029 383.371 C 16.196 382.539,16.048 17.712,16.880 16.880 C 17.712 16.048,382.539 16.196,383.371 17.029 M68.982 36.982 C 68.004 37.960,68.000 37.993,68.000 46.127 L 68.000 54.291 69.055 55.345 C 69.635 55.925,70.252 56.400,70.426 56.400 C 71.615 56.400,72.000 57.765,72.000 61.974 C 72.000 66.273,72.803 68.400,74.426 68.400 C 75.386 68.400,76.000 69.795,76.000 71.974 C 76.000 74.200,77.206 76.400,78.426 76.400 C 79.615 76.400,80.000 77.765,80.000 81.974 C 80.000 86.273,80.803 88.400,82.426 88.400 C 83.386 88.400,84.000 89.795,84.000 91.974 C 84.000 94.200,85.206 96.400,86.426 96.400 C 87.615 96.400,88.000 97.765,88.000 101.974 C 88.000 106.273,88.803 108.400,90.426 108.400 C 91.386 108.400,92.000 109.795,92.000 111.974 C 92.000 114.200,93.206 116.400,94.426 116.400 C 95.615 116.400,96.000 117.765,96.000 121.974 C 96.000 126.273,96.803 128.400,98.426 128.400 C 99.386 128.400,100.000 129.795,100.000 131.974 C 100.000 134.200,101.206 136.400,102.426 136.400 C 103.615 136.400,104.000 137.765,104.000 141.974 C 104.000 146.273,104.803 148.400,106.426 148.400 C 107.386 148.400,108.000 149.795,108.000 151.974 C 108.000 154.200,109.206 156.400,110.426 156.400 C 111.615 156.400,112.000 157.765,112.000 161.974 C 112.000 166.273,112.803 168.400,114.426 168.400 C 115.386 168.400,116.000 169.795,116.000 171.974 C 116.000 174.200,117.206 176.400,118.426 176.400 C 119.615 176.400,120.000 177.765,120.000 181.974 C 120.000 186.273,120.803 188.400,122.426 188.400 C 123.386 188.400,124.000 189.795,124.000 191.974 C 124.000 194.200,125.206 196.400,126.426 196.400 C 127.615 196.400,128.000 197.765,128.000 201.974 C 128.000 206.273,128.803 208.400,130.426 208.400 C 131.386 208.400,132.000 209.795,132.000 211.974 C 132.000 214.200,133.206 216.400,134.426 216.400 C 135.615 216.400,136.000 217.765,136.000 221.974 C 136.000 226.273,136.803 228.400,138.426 228.400 C 139.386 228.400,140.000 229.795,140.000 231.974 C 140.000 234.200,141.206 236.400,142.426 236.400 C 143.615 236.400,144.000 237.765,144.000 241.974 C 144.000 246.273,144.803 248.400,146.426 248.400 C 147.386 248.400,148.000 249.795,148.000 251.974 C 148.000 254.200,149.206 256.400,150.426 256.400 C 151.615 256.400,152.000 257.765,152.000 261.974 C 152.000 266.273,152.803 268.400,154.426 268.400 C 155.386 268.400,156.000 269.795,156.000 271.974 C 156.000 274.200,157.206 276.400,158.426 276.400 C 159.615 276.400,160.000 277.765,160.000 281.974 C 160.000 286.273,160.803 288.400,162.426 288.400 C 163.386 288.400,164.000 289.795,164.000 291.974 C 164.000 294.200,165.206 296.400,166.426 296.400 C 167.615 296.400,168.000 297.765,168.000 301.974 C 168.000 306.273,168.803 308.400,170.426 308.400 C 171.386 308.400,172.000 309.795,172.000 311.974 C 172.000 314.200,173.206 316.400,174.426 316.400 C 175.615 316.400,176.000 317.765,176.000 321.974 C 176.000 326.273,176.803 328.400,178.426 328.400 C 179.386 328.400,180.000 329.795,180.000 331.974 C 180.000 334.200,181.206 336.400,182.426 336.400 C 183.615 336.400,184.000 337.765,184.000 341.974 C 184.000 346.273,184.803 348.400,186.426 348.400 C 187.386 348.400,188.000 349.795,188.000 351.974 C 188.000 354.200,189.206 356.400,190.426 356.400 C 191.386 356.400,192.000 357.795,192.000 359.974 C 192.000 362.400,192.989 364.025,194.820 364.606 C 195.226 364.735,195.665 365.174,195.794 365.580 C 197.106 369.715,206.945 369.646,208.514 365.491 C 208.661 365.101,209.101 364.661,209.491 364.514 C 211.370 363.804,212.355 362.182,212.480 359.593 C 212.576 357.594,212.760 356.993,213.385 356.642 C 215.617 355.385,216.355 354.180,216.480 351.593 C 216.576 349.594,216.760 348.993,217.385 348.642 C 220.031 347.152,220.365 346.391,220.486 341.587 C 220.587 337.599,220.690 337.035,221.385 336.643 C 223.619 335.382,224.355 334.180,224.480 331.593 C 224.576 329.594,224.760 328.993,225.385 328.642 C 227.617 327.385,228.355 326.180,228.480 323.593 C 228.576 321.594,228.760 320.993,229.385 320.642 C 232.031 319.152,232.365 318.391,232.486 313.587 C 232.587 309.599,232.690 309.035,233.385 308.643 C 235.619 307.382,236.355 306.180,236.480 303.593 C 236.576 301.594,236.760 300.993,237.385 300.642 C 240.031 299.152,240.365 298.391,240.486 293.587 C 240.587 289.599,240.690 289.035,241.385 288.643 C 243.619 287.382,244.355 286.180,244.480 283.593 C 244.576 281.594,244.760 280.993,245.385 280.642 C 248.031 279.152,248.365 278.391,248.486 273.587 C 248.587 269.599,248.690 269.035,249.385 268.643 C 251.619 267.382,252.355 266.180,252.480 263.593 C 252.576 261.594,252.760 260.993,253.385 260.642 C 256.031 259.152,256.365 258.391,256.486 253.587 C 256.587 249.599,256.690 249.035,257.385 248.643 C 259.619 247.382,260.355 246.180,260.480 243.593 C 260.576 241.594,260.760 240.993,261.385 240.642 C 263.617 239.385,264.355 238.180,264.480 235.593 C 264.576 233.594,264.760 232.993,265.385 232.642 C 268.031 231.152,268.365 230.391,268.486 225.587 C 268.587 221.599,268.690 221.035,269.385 220.643 C 271.619 219.382,272.355 218.180,272.480 215.593 C 272.576 213.594,272.760 212.993,273.385 212.642 C 276.031 211.152,276.365 210.391,276.486 205.587 C 276.587 201.599,276.690 201.035,277.385 200.643 C 279.619 199.382,280.355 198.180,280.480 195.593 C 280.576 193.594,280.760 192.993,281.385 192.642 C 284.031 191.152,284.365 190.391,284.486 185.587 C 284.587 181.599,284.690 181.035,285.385 180.643 C 287.619 179.382,288.355 178.180,288.480 175.593 C 288.576 173.594,288.760 172.993,289.385 172.642 C 291.617 171.385,292.355 170.180,292.480 167.593 C 292.576 165.594,292.760 164.993,293.385 164.642 C 296.031 163.152,296.365 162.391,296.486 157.587 C 296.587 153.599,296.690 153.035,297.385 152.643 C 299.619 151.382,300.355 150.180,300.480 147.593 C 300.576 145.594,300.760 144.993,301.385 144.642 C 304.031 143.152,304.365 142.391,304.486 137.587 C 304.587 133.599,304.690 133.035,305.385 132.643 C 307.619 131.382,308.355 130.180,308.480 127.593 C 308.576 125.594,308.760 124.993,309.385 124.642 C 312.031 123.152,312.365 122.391,312.486 117.587 C 312.587 113.599,312.690 113.035,313.385 112.643 C 315.619 111.382,316.355 110.180,316.480 107.593 C 316.576 105.594,316.760 104.993,317.385 104.642 C 320.031 103.152,320.365 102.391,320.486 97.587 C 320.587 93.599,320.690 93.035,321.385 92.643 C 323.619 91.382,324.355 90.180,324.480 87.593 C 324.576 85.594,324.760 84.993,325.385 84.642 C 327.617 83.385,328.355 82.180,328.480 79.593 C 328.576 77.594,328.760 76.993,329.385 76.642 C 332.031 75.152,332.365 74.391,332.486 69.587 C 332.587 65.599,332.690 65.035,333.385 64.643 C 335.619 63.382,336.355 62.180,336.480 59.593 C 336.576 57.594,336.760 56.993,337.385 56.642 C 337.816 56.399,338.671 55.719,339.285 55.131 L 340.400 54.062 340.400 46.085 L 340.400 38.109 339.345 37.055 C 338.297 36.006,338.254 36.000,332.127 36.000 C 325.319 36.000,326.150 35.731,323.343 38.848 C 322.872 39.372,321.927 40.274,321.243 40.854 C 320.121 41.805,320.000 42.130,320.000 44.184 C 320.000 46.155,319.859 46.577,318.948 47.330 C 316.103 49.684,316.000 49.854,316.000 52.212 C 316.000 54.153,315.856 54.580,314.948 55.330 C 311.877 57.870,312.000 57.584,312.000 62.212 C 312.000 66.312,311.963 66.491,310.948 67.330 C 308.103 69.684,308.000 69.854,308.000 72.212 C 308.000 74.153,307.856 74.580,306.948 75.330 C 304.103 77.684,304.000 77.854,304.000 80.212 C 304.000 82.153,303.856 82.580,302.948 83.330 C 299.877 85.870,300.000 85.584,300.000 90.212 C 300.000 94.312,299.963 94.491,298.948 95.330 C 296.103 97.684,296.000 97.854,296.000 100.212 C 296.000 102.153,295.856 102.580,294.948 103.330 C 291.877 105.870,292.000 105.584,292.000 110.212 C 292.000 114.312,291.963 114.491,290.948 115.330 C 288.103 117.684,288.000 117.854,288.000 120.212 C 288.000 122.153,287.856 122.580,286.948 123.330 C 283.877 125.870,284.000 125.584,284.000 130.212 C 284.000 134.312,283.963 134.491,282.948 135.330 C 280.103 137.684,280.000 137.854,280.000 140.212 C 280.000 142.153,279.856 142.580,278.948 143.330 C 275.877 145.870,276.000 145.584,276.000 150.212 C 276.000 154.312,275.963 154.491,274.948 155.330 C 272.103 157.684,272.000 157.854,272.000 160.212 C 272.000 162.153,271.856 162.580,270.948 163.330 C 268.103 165.684,268.000 165.854,268.000 168.212 C 268.000 170.153,267.856 170.580,266.948 171.330 C 263.877 173.870,264.000 173.584,264.000 178.212 C 264.000 182.312,263.963 182.491,262.948 183.330 C 260.103 185.684,260.000 185.854,260.000 188.212 C 260.000 190.153,259.856 190.580,258.948 191.330 C 255.877 193.870,256.000 193.584,256.000 198.212 C 256.000 202.312,255.963 202.491,254.948 203.330 C 252.103 205.684,252.000 205.854,252.000 208.212 C 252.000 210.153,251.856 210.580,250.948 211.330 C 247.877 213.870,248.000 213.584,248.000 218.212 C 248.000 222.312,247.963 222.491,246.948 223.330 C 244.103 225.684,244.000 225.854,244.000 228.212 C 244.000 230.153,243.856 230.580,242.948 231.330 C 240.103 233.684,240.000 233.854,240.000 236.212 C 240.000 238.153,239.856 238.580,238.948 239.330 C 235.877 241.870,236.000 241.584,236.000 246.212 C 236.000 250.312,235.963 250.491,234.948 251.330 C 232.103 253.684,232.000 253.854,232.000 256.212 C 232.000 258.153,231.856 258.580,230.948 259.330 C 227.877 261.870,228.000 261.584,228.000 266.212 C 228.000 270.312,227.963 270.491,226.948 271.330 C 224.103 273.684,224.000 273.854,224.000 276.212 C 224.000 278.153,223.856 278.580,222.948 279.330 C 219.877 281.870,220.000 281.584,220.000 286.212 C 220.000 290.312,219.963 290.491,218.948 291.330 C 216.103 293.684,216.000 293.854,216.000 296.212 C 216.000 298.153,215.856 298.580,214.948 299.330 C 211.877 301.870,212.000 301.584,212.000 306.212 C 212.000 310.312,211.963 310.491,210.948 311.330 C 208.103 313.684,208.000 313.854,208.000 316.212 C 208.000 318.153,207.856 318.580,206.948 319.330 C 204.109 321.679,204.000 321.858,204.000 324.182 C 204.000 325.867,203.808 326.592,203.200 327.200 C 201.568 328.832,200.400 327.675,200.400 324.426 C 200.400 322.200,199.194 320.000,197.974 320.000 C 196.785 320.000,196.400 318.635,196.400 314.426 C 196.400 310.127,195.597 308.000,193.974 308.000 C 193.014 308.000,192.400 306.605,192.400 304.426 C 192.400 302.200,191.194 300.000,189.974 300.000 C 188.785 300.000,188.400 298.635,188.400 294.426 C 188.400 290.127,187.597 288.000,185.974 288.000 C 185.014 288.000,184.400 286.605,184.400 284.426 C 184.400 282.200,183.194 280.000,181.974 280.000 C 180.785 280.000,180.400 278.635,180.400 274.426 C 180.400 270.127,179.597 268.000,177.974 268.000 C 177.014 268.000,176.400 266.605,176.400 264.426 C 176.400 262.200,175.194 260.000,173.974 260.000 C 172.785 260.000,172.400 258.635,172.400 254.426 C 172.400 250.127,171.597 248.000,169.974 248.000 C 169.014 248.000,168.400 246.605,168.400 244.426 C 168.400 242.200,167.194 240.000,165.974 240.000 C 164.785 240.000,164.400 238.635,164.400 234.426 C 164.400 230.127,163.597 228.000,161.974 228.000 C 161.014 228.000,160.400 226.605,160.400 224.426 C 160.400 222.200,159.194 220.000,157.974 220.000 C 156.785 220.000,156.400 218.635,156.400 214.426 C 156.400 210.127,155.597 208.000,153.974 208.000 C 153.014 208.000,152.400 206.605,152.400 204.426 C 152.400 202.200,151.194 200.000,149.974 200.000 C 148.785 200.000,148.400 198.635,148.400 194.426 C 148.400 190.127,147.597 188.000,145.974 188.000 C 145.014 188.000,144.400 186.605,144.400 184.426 C 144.400 182.200,143.194 180.000,141.974 180.000 C 140.785 180.000,140.400 178.635,140.400 174.426 C 140.400 170.127,139.597 168.000,137.974 168.000 C 137.014 168.000,136.400 166.605,136.400 164.426 C 136.400 162.200,135.194 160.000,133.974 160.000 C 132.785 160.000,132.400 158.635,132.400 154.426 C 132.400 150.127,131.597 148.000,129.974 148.000 C 129.014 148.000,128.400 146.605,128.400 144.426 C 128.400 142.200,127.194 140.000,125.974 140.000 C 124.785 140.000,124.400 138.635,124.400 134.426 C 124.400 130.127,123.597 128.000,121.974 128.000 C 121.014 128.000,120.400 126.605,120.400 124.426 C 120.400 122.200,119.194 120.000,117.974 120.000 C 116.785 120.000,116.400 118.635,116.400 114.426 C 116.400 110.127,115.597 108.000,113.974 108.000 C 113.014 108.000,112.400 106.605,112.400 104.426 C 112.400 102.200,111.194 100.000,109.974 100.000 C 108.785 100.000,108.400 98.635,108.400 94.426 C 108.400 90.127,107.597 88.000,105.974 88.000 C 105.014 88.000,104.400 86.605,104.400 84.426 C 104.400 82.200,103.194 80.000,101.974 80.000 C 100.785 80.000,100.400 78.635,100.400 74.426 C 100.400 70.127,99.597 68.000,97.974 68.000 C 97.014 68.000,96.400 66.605,96.400 64.426 C 96.400 62.200,95.194 60.000,93.974 60.000 C 92.785 60.000,92.400 58.635,92.400 54.426 C 92.400 50.127,91.597 48.000,89.974 48.000 C 89.014 48.000,88.400 46.605,88.400 44.426 C 88.400 42.000,87.411 40.375,85.580 39.794 C 85.174 39.665,84.735 39.226,84.606 38.820 C 83.649 35.803,71.580 34.383,68.982 36.982 " stroke="none" fill="#040404" fill-rule="evenodd"></path></g></svg>