<svg id="svg" version="1.1" xmlns="http://www.w3.org/2000/svg" xmlns:xlink="http://www.w3.org/1999/xlink" width="400" height="400" viewBox="0, 0, 400,400"><g id="svgg"><path id="path0" d="M21.029 21.029 C 19.974 22.083,20.077 378.383,21.131 379.338 C 21.810 379.952,34.807 380.000,200.062 380.000 L 378.261 380.000 379.130 379.074 L 380.000 378.148 380.000 199.936 C 380.000 27.795,379.975 21.701,379.269 21.062 C 378.171 20.068,22.022 20.035,21.029 21.029 " stroke="none" fill="#fcfc0c" fill-rule="evenodd"></path><path id="path1" d="M0.000 200.000 L 0.000 400.000 200.000 400.000 L 400.000 400.000 400.000 200.000 L 400.000 0.000 200.000 0.000 L 0.000 0.000 0.000 200.000 M379.269 21.062 C 379.975 21.701,380.000 27.795,380.000 199.936 L 380.000 378.148 379.130 379.074 L 378.261 380.000 200.062 380.000 C 34.807 380.000,21.810 379.952,21.131 379.338 C 20.077 378.383,19.974 22.083,21.029 21.029 C 22.022 20.035,378.171 20.068,379.269 21.062 " stroke="none" fill="#040404" fill-rule="evenodd"></path></g></svg>