<svg id="svg" version="1.1" xmlns="http://www.w3.org/2000/svg" xmlns:xlink="http://www.w3.org/1999/xlink" width="400" height="400" viewBox="0, 0, 400,400"><g id="svgg"><path id="path0" d="M16.880 16.880 C 16.048 17.712,16.196 382.539,17.029 383.371 C 18.143 384.485,382.085 384.315,383.200 383.200 C 384.315 382.085,384.485 18.143,383.371 17.029 C 382.539 16.196,17.712 16.048,16.880 16.880 M287.330 21.058 C 288.124 22.024,288.925 22.834,291.500 25.274 C 293.924 27.570,292.569 34.849,289.385 36.642 C 288.760 36.993,288.576 37.594,288.480 39.593 C 288.355 42.180,287.617 43.385,285.385 44.642 C 284.760 44.993,284.576 45.594,284.480 47.593 C 284.355 50.180,283.617 51.385,281.385 52.642 C 280.760 52.993,280.576 53.594,280.480 55.593 C 280.355 58.180,279.617 59.385,277.385 60.642 C 276.760 60.993,276.576 61.594,276.480 63.593 C 276.355 66.180,275.617 67.385,273.385 68.642 C 272.760 68.993,272.576 69.594,272.480 71.593 C 272.355 74.182,271.370 75.804,269.491 76.514 C 269.101 76.661,268.661 77.101,268.514 77.491 C 268.205 78.310,266.528 79.998,265.385 80.642 C 264.760 80.993,264.576 81.594,264.480 83.593 C 264.355 86.180,263.617 87.385,261.385 88.642 C 260.760 88.993,260.576 89.594,260.480 91.593 C 260.355 94.180,259.617 95.385,257.385 96.642 C 256.760 96.993,256.576 97.594,256.480 99.593 C 256.355 102.180,255.617 103.385,253.385 104.642 C 252.760 104.993,252.576 105.594,252.480 107.593 C 252.355 110.180,251.617 111.385,249.385 112.642 C 248.760 112.993,248.576 113.594,248.480 115.593 C 248.355 118.180,247.617 119.385,245.385 120.642 C 244.760 120.993,244.576 121.594,244.480 123.593 C 244.355 126.182,243.370 127.804,241.491 128.514 C 241.101 128.661,240.661 129.101,240.514 129.491 C 240.205 130.310,238.528 131.998,237.385 132.642 C 236.760 132.993,236.576 133.594,236.480 135.593 C 236.355 138.180,235.617 139.385,233.385 140.642 C 232.760 140.993,232.576 141.594,232.480 143.593 C 232.355 146.180,231.617 147.385,229.385 148.642 C 228.760 148.993,228.576 149.594,228.480 151.593 C 228.355 154.180,227.617 155.385,225.385 156.642 C 224.760 156.993,224.576 157.594,224.480 159.593 C 224.355 162.180,223.617 163.385,221.385 164.642 C 220.760 164.993,220.576 165.594,220.480 167.593 C 220.355 170.182,219.370 171.804,217.491 172.514 C 217.101 172.661,216.661 173.101,216.514 173.491 C 216.205 174.310,214.528 175.998,213.385 176.642 C 212.760 176.993,212.576 177.594,212.480 179.593 C 212.362 182.049,210.992 184.400,209.680 184.400 C 208.239 184.400,208.136 187.335,209.561 187.787 C 211.410 188.375,212.400 189.991,212.400 192.426 C 212.400 194.605,213.014 196.000,213.974 196.000 C 215.170 196.000,216.400 198.202,216.406 200.355 C 216.413 202.932,216.540 203.193,218.276 204.202 C 218.977 204.610,219.874 205.543,220.268 206.274 C 220.662 207.006,221.285 207.700,221.652 207.816 C 223.412 208.375,224.400 210.032,224.400 212.426 C 224.400 214.605,225.014 216.000,225.974 216.000 C 227.170 216.000,228.400 218.202,228.406 220.355 C 228.413 222.932,228.540 223.193,230.276 224.202 C 230.977 224.610,231.874 225.543,232.268 226.274 C 232.662 227.006,233.285 227.700,233.652 227.816 C 235.412 228.375,236.400 230.032,236.400 232.426 C 236.400 234.605,237.014 236.000,237.974 236.000 C 239.194 236.000,240.400 238.200,240.400 240.426 C 240.400 242.605,241.014 244.000,241.974 244.000 C 243.170 244.000,244.400 246.202,244.406 248.355 C 244.413 250.932,244.540 251.193,246.276 252.202 C 246.977 252.610,247.874 253.543,248.268 254.274 C 248.662 255.006,249.285 255.700,249.652 255.816 C 251.412 256.375,252.400 258.032,252.400 260.426 C 252.400 262.663,253.016 264.000,254.048 264.000 C 255.259 264.000,256.400 266.154,256.400 268.440 C 256.400 270.501,256.519 270.844,257.454 271.481 C 258.033 271.877,258.888 272.631,259.354 273.158 C 260.131 274.038,261.089 274.990,263.500 277.274 C 264.232 277.967,264.400 278.560,264.400 280.445 C 264.400 282.496,264.521 282.845,265.448 283.481 C 267.921 285.178,268.400 285.982,268.400 288.440 C 268.400 290.501,268.519 290.844,269.454 291.481 C 270.033 291.877,270.888 292.631,271.354 293.158 C 272.131 294.038,273.089 294.990,275.500 297.274 C 276.232 297.967,276.400 298.560,276.400 300.445 C 276.400 302.496,276.521 302.845,277.448 303.481 C 279.921 305.178,280.400 305.982,280.400 308.440 C 280.400 310.501,280.519 310.844,281.454 311.481 C 282.033 311.877,282.888 312.631,283.354 313.158 C 284.131 314.038,285.089 314.990,287.500 317.274 C 288.232 317.967,288.400 318.560,288.400 320.445 C 288.400 322.496,288.521 322.845,289.448 323.481 C 291.921 325.178,292.400 325.982,292.400 328.440 C 292.400 330.496,292.520 330.845,293.448 331.481 C 295.921 333.178,296.400 333.982,296.400 336.440 C 296.400 338.501,296.519 338.844,297.454 339.481 C 298.033 339.877,298.888 340.631,299.354 341.158 C 300.131 342.038,301.089 342.990,303.500 345.274 C 304.231 345.966,304.400 346.561,304.400 348.435 C 304.400 350.605,305.016 352.000,305.974 352.000 C 307.194 352.000,308.400 354.200,308.400 356.426 C 308.400 358.605,309.014 360.000,309.974 360.000 C 313.723 360.000,313.295 371.078,309.491 372.514 C 309.101 372.661,308.661 373.101,308.514 373.491 C 306.863 377.864,297.914 377.731,295.635 373.300 C 295.380 372.805,294.942 372.400,294.661 372.400 C 294.063 372.400,292.301 370.595,291.635 369.300 C 291.380 368.805,290.963 368.400,290.708 368.400 C 289.348 368.400,288.000 366.259,288.000 364.099 C 288.000 361.848,287.494 360.400,286.708 360.400 C 285.348 360.400,284.000 358.259,284.000 356.099 C 284.000 353.802,283.492 352.400,282.661 352.400 C 282.063 352.400,280.301 350.595,279.635 349.300 C 279.380 348.805,278.963 348.400,278.708 348.400 C 277.348 348.400,276.000 346.259,276.000 344.099 C 276.000 341.848,275.494 340.400,274.708 340.400 C 273.348 340.400,272.000 338.259,272.000 336.099 C 272.000 333.848,271.494 332.400,270.708 332.400 C 269.348 332.400,268.000 330.259,268.000 328.099 C 268.000 325.802,267.492 324.400,266.661 324.400 C 266.063 324.400,264.301 322.595,263.635 321.300 C 263.380 320.805,262.963 320.400,262.708 320.400 C 261.348 320.400,260.000 318.259,260.000 316.099 C 260.000 313.848,259.494 312.400,258.708 312.400 C 257.367 312.400,256.000 310.258,256.000 308.158 C 256.000 305.426,255.772 304.919,254.208 304.177 C 253.490 303.836,252.569 302.936,252.159 302.177 C 251.750 301.417,251.115 300.700,250.748 300.584 C 248.988 300.025,248.000 298.368,248.000 295.974 C 248.000 293.795,247.386 292.400,246.426 292.400 C 245.230 292.400,244.000 290.198,243.994 288.045 C 243.987 285.468,243.860 285.207,242.124 284.198 C 241.423 283.790,240.526 282.857,240.132 282.126 C 239.738 281.394,239.115 280.700,238.748 280.584 C 236.988 280.025,236.000 278.368,236.000 275.974 C 236.000 273.795,235.386 272.400,234.426 272.400 C 233.230 272.400,232.000 270.198,231.994 268.045 C 231.987 265.468,231.860 265.207,230.124 264.198 C 229.423 263.790,228.526 262.857,228.132 262.126 C 227.738 261.394,227.115 260.700,226.748 260.584 C 224.988 260.025,224.000 258.368,224.000 255.974 C 224.000 253.795,223.386 252.400,222.426 252.400 C 221.206 252.400,220.000 250.200,220.000 247.974 C 220.000 245.795,219.386 244.400,218.426 244.400 C 217.230 244.400,216.000 242.198,215.994 240.045 C 215.987 237.468,215.860 237.207,214.124 236.198 C 213.423 235.790,212.526 234.857,212.132 234.126 C 211.738 233.394,211.115 232.700,210.748 232.584 C 208.988 232.025,208.000 230.368,208.000 227.974 C 208.000 225.795,207.386 224.400,206.426 224.400 C 205.230 224.400,204.000 222.198,203.994 220.045 C 203.987 217.468,203.860 217.207,202.124 216.198 C 201.423 215.790,200.523 214.851,200.124 214.111 C 199.108 212.223,196.400 211.910,196.400 213.680 C 196.400 214.139,194.480 216.025,193.385 216.642 C 192.760 216.993,192.576 217.594,192.480 219.593 C 192.355 222.182,191.370 223.804,189.491 224.514 C 189.101 224.661,188.661 225.101,188.514 225.491 C 188.205 226.310,186.528 227.998,185.385 228.642 C 184.760 228.993,184.576 229.594,184.480 231.593 C 184.355 234.180,183.617 235.385,181.385 236.642 C 180.760 236.993,180.576 237.594,180.480 239.593 C 180.355 242.180,179.617 243.385,177.385 244.642 C 176.760 244.993,176.576 245.594,176.480 247.593 C 176.355 250.180,175.617 251.385,173.385 252.642 C 172.760 252.993,172.576 253.594,172.480 255.593 C 172.355 258.180,171.617 259.385,169.385 260.642 C 168.760 260.993,168.576 261.594,168.480 263.593 C 168.355 266.182,167.370 267.804,165.491 268.514 C 165.101 268.661,164.661 269.101,164.514 269.491 C 164.205 270.310,162.528 271.998,161.385 272.642 C 160.760 272.993,160.576 273.594,160.480 275.593 C 160.355 278.180,159.617 279.385,157.385 280.642 C 156.760 280.993,156.576 281.594,156.480 283.593 C 156.355 286.180,155.617 287.385,153.385 288.642 C 152.760 288.993,152.576 289.594,152.480 291.593 C 152.355 294.180,151.617 295.385,149.385 296.642 C 148.760 296.993,148.576 297.594,148.480 299.593 C 148.355 302.180,147.617 303.385,145.385 304.642 C 144.760 304.993,144.576 305.594,144.480 307.593 C 144.355 310.180,143.617 311.385,141.385 312.642 C 140.760 312.993,140.576 313.594,140.480 315.593 C 140.355 318.182,139.370 319.804,137.491 320.514 C 137.101 320.661,136.661 321.101,136.514 321.491 C 136.205 322.310,134.528 323.998,133.385 324.642 C 132.760 324.993,132.576 325.594,132.480 327.593 C 132.355 330.180,131.617 331.385,129.385 332.642 C 128.760 332.993,128.576 333.594,128.480 335.593 C 128.355 338.180,127.617 339.385,125.385 340.642 C 124.760 340.993,124.576 341.594,124.480 343.593 C 124.355 346.180,123.617 347.385,121.385 348.642 C 120.760 348.993,120.576 349.594,120.480 351.593 C 120.355 354.180,119.617 355.385,117.385 356.642 C 116.760 356.993,116.576 357.594,116.480 359.593 C 116.355 362.182,115.370 363.804,113.491 364.514 C 113.101 364.661,112.661 365.101,112.514 365.491 C 112.169 366.405,110.405 368.169,109.491 368.514 C 109.101 368.661,108.661 369.101,108.514 369.491 C 106.945 373.646,97.106 373.715,95.794 369.580 C 95.665 369.174,95.226 368.735,94.820 368.606 C 92.588 367.898,92.000 366.547,92.000 362.127 C 92.000 357.595,91.883 357.866,94.948 355.330 C 95.856 354.580,96.000 354.153,96.000 352.212 C 96.000 349.854,96.103 349.684,98.948 347.330 C 99.856 346.580,100.000 346.153,100.000 344.212 C 100.000 341.854,100.103 341.684,102.948 339.330 C 103.856 338.580,104.000 338.153,104.000 336.212 C 104.000 333.854,104.103 333.684,106.948 331.330 C 107.856 330.580,108.000 330.153,108.000 328.212 C 108.000 325.854,108.103 325.684,110.948 323.330 C 111.859 322.577,112.000 322.155,112.000 320.184 C 112.000 318.130,112.121 317.805,113.243 316.854 C 113.927 316.274,114.872 315.372,115.343 314.848 C 116.633 313.416,117.780 312.297,118.948 311.330 C 119.856 310.580,120.000 310.153,120.000 308.212 C 120.000 305.854,120.103 305.684,122.948 303.330 C 123.856 302.580,124.000 302.153,124.000 300.212 C 124.000 297.854,124.103 297.684,126.948 295.330 C 127.856 294.580,128.000 294.153,128.000 292.212 C 128.000 289.854,128.103 289.684,130.948 287.330 C 131.856 286.580,132.000 286.153,132.000 284.212 C 132.000 281.854,132.103 281.684,134.948 279.330 C 135.856 278.580,136.000 278.153,136.000 276.212 C 136.000 273.854,136.103 273.684,138.948 271.330 C 139.856 270.580,140.000 270.153,140.000 268.212 C 140.000 265.861,139.942 265.960,142.848 263.343 C 143.372 262.872,144.266 261.972,144.835 261.343 C 145.404 260.714,146.349 259.809,146.935 259.330 C 147.859 258.576,148.000 258.163,148.000 256.212 C 148.000 253.854,148.103 253.684,150.948 251.330 C 151.856 250.580,152.000 250.153,152.000 248.212 C 152.000 245.854,152.103 245.684,154.948 243.330 C 155.856 242.580,156.000 242.153,156.000 240.212 C 156.000 237.854,156.103 237.684,158.948 235.330 C 159.856 234.580,160.000 234.153,160.000 232.212 C 160.000 229.854,160.103 229.684,162.948 227.330 C 163.856 226.580,164.000 226.153,164.000 224.212 C 164.000 221.861,163.942 221.960,166.848 219.343 C 167.372 218.872,168.266 217.972,168.835 217.343 C 169.404 216.714,170.349 215.809,170.935 215.330 C 171.859 214.576,172.000 214.163,172.000 212.212 C 172.000 209.854,172.103 209.684,174.948 207.330 C 175.856 206.580,176.000 206.153,176.000 204.212 C 176.000 201.854,176.103 201.684,178.948 199.330 C 179.856 198.580,180.000 198.153,180.000 196.212 C 180.000 193.854,180.103 193.684,182.948 191.330 C 184.702 189.880,184.289 184.400,182.426 184.400 C 181.230 184.400,180.000 182.198,179.994 180.045 C 179.987 177.468,179.860 177.207,178.124 176.198 C 177.423 175.790,176.526 174.857,176.132 174.126 C 175.738 173.394,175.115 172.700,174.748 172.584 C 172.988 172.025,172.000 170.368,172.000 167.974 C 172.000 165.795,171.386 164.400,170.426 164.400 C 169.206 164.400,168.000 162.200,168.000 159.974 C 168.000 157.795,167.386 156.400,166.426 156.400 C 165.230 156.400,164.000 154.198,163.994 152.045 C 163.987 149.468,163.860 149.207,162.124 148.198 C 161.423 147.790,160.526 146.857,160.132 146.126 C 159.738 145.394,159.115 144.700,158.748 144.584 C 156.988 144.025,156.000 142.368,156.000 139.974 C 156.000 137.795,155.386 136.400,154.426 136.400 C 153.230 136.400,152.000 134.198,151.994 132.045 C 151.987 129.468,151.860 129.207,150.124 128.198 C 149.423 127.790,148.526 126.857,148.132 126.126 C 147.738 125.394,147.115 124.700,146.748 124.584 C 144.988 124.025,144.000 122.368,144.000 119.974 C 144.000 117.795,143.386 116.400,142.426 116.400 C 141.230 116.400,140.000 114.198,139.994 112.045 C 139.987 109.468,139.860 109.207,138.124 108.198 C 137.423 107.790,136.526 106.857,136.132 106.126 C 135.738 105.394,135.115 104.700,134.748 104.584 C 132.988 104.025,132.000 102.368,132.000 99.974 C 132.000 97.795,131.386 96.400,130.426 96.400 C 129.230 96.400,128.000 94.198,127.994 92.045 C 127.987 89.468,127.860 89.207,126.124 88.198 C 125.423 87.790,124.526 86.857,124.132 86.126 C 123.738 85.394,123.115 84.700,122.748 84.584 C 120.988 84.025,120.000 82.368,120.000 79.974 C 120.000 77.795,119.386 76.400,118.426 76.400 C 117.206 76.400,116.000 74.200,116.000 71.974 C 116.000 69.795,115.386 68.400,114.426 68.400 C 113.230 68.400,112.000 66.198,111.994 64.045 C 111.987 61.468,111.860 61.207,110.124 60.198 C 109.423 59.790,108.526 58.857,108.132 58.126 C 107.738 57.394,107.115 56.700,106.748 56.584 C 104.988 56.025,104.000 54.368,104.000 51.974 C 104.000 49.795,103.386 48.400,102.426 48.400 C 101.206 48.400,100.000 46.200,100.000 43.974 C 100.000 41.795,99.386 40.400,98.426 40.400 C 96.822 40.400,96.000 38.266,96.000 34.099 L 96.000 29.908 97.243 28.854 C 97.927 28.274,98.872 27.372,99.343 26.848 C 102.097 23.789,101.595 24.000,106.127 24.000 C 110.510 24.000,111.899 24.591,112.584 26.748 C 112.700 27.115,113.408 27.746,114.157 28.149 C 114.906 28.552,115.848 29.494,116.251 30.243 C 116.654 30.992,117.285 31.700,117.652 31.816 C 119.412 32.375,120.400 34.032,120.400 36.426 C 120.400 38.605,121.014 40.000,121.974 40.000 C 123.170 40.000,124.400 42.202,124.406 44.355 C 124.413 46.932,124.540 47.193,126.276 48.202 C 126.977 48.610,127.874 49.543,128.268 50.274 C 128.662 51.006,129.285 51.700,129.652 51.816 C 131.412 52.375,132.400 54.032,132.400 56.426 C 132.400 58.605,133.014 60.000,133.974 60.000 C 135.194 60.000,136.400 62.200,136.400 64.426 C 136.400 66.605,137.014 68.000,137.974 68.000 C 139.170 68.000,140.400 70.202,140.406 72.355 C 140.413 74.932,140.540 75.193,142.276 76.202 C 142.977 76.610,143.874 77.543,144.268 78.274 C 144.662 79.006,145.285 79.700,145.652 79.816 C 147.412 80.375,148.400 82.032,148.400 84.426 C 148.400 86.605,149.014 88.000,149.974 88.000 C 151.170 88.000,152.400 90.202,152.406 92.355 C 152.413 94.932,152.540 95.193,154.276 96.202 C 154.977 96.610,155.874 97.543,156.268 98.274 C 156.662 99.006,157.285 99.700,157.652 99.816 C 159.412 100.375,160.400 102.032,160.400 104.426 C 160.400 106.605,161.014 108.000,161.974 108.000 C 163.170 108.000,164.400 110.202,164.406 112.355 C 164.413 114.932,164.540 115.193,166.276 116.202 C 166.977 116.610,167.874 117.543,168.268 118.274 C 168.662 119.006,169.285 119.700,169.652 119.816 C 171.412 120.375,172.400 122.032,172.400 124.426 C 172.400 126.605,173.014 128.000,173.974 128.000 C 175.170 128.000,176.400 130.202,176.406 132.355 C 176.413 134.932,176.540 135.193,178.276 136.202 C 178.977 136.610,179.874 137.543,180.268 138.274 C 180.662 139.006,181.285 139.700,181.652 139.816 C 183.412 140.375,184.400 142.032,184.400 144.426 C 184.400 146.605,185.014 148.000,185.974 148.000 C 187.194 148.000,188.400 150.200,188.400 152.426 C 188.400 154.605,189.014 156.000,189.974 156.000 C 191.194 156.000,192.400 158.200,192.400 160.426 C 192.400 163.473,192.935 164.000,196.029 164.000 C 199.213 164.000,200.000 163.243,200.000 160.182 C 200.000 157.858,200.109 157.679,202.948 155.330 C 203.856 154.580,204.000 154.153,204.000 152.212 C 204.000 149.854,204.103 149.684,206.948 147.330 C 207.856 146.580,208.000 146.153,208.000 144.212 C 208.000 141.854,208.103 141.684,210.948 139.330 C 211.856 138.580,212.000 138.153,212.000 136.212 C 212.000 133.854,212.103 133.684,214.948 131.330 C 215.856 130.580,216.000 130.153,216.000 128.212 C 216.000 125.861,215.942 125.960,218.848 123.343 C 219.372 122.872,220.266 121.972,220.835 121.343 C 221.404 120.714,222.349 119.809,222.935 119.330 C 223.859 118.576,224.000 118.163,224.000 116.212 C 224.000 113.854,224.103 113.684,226.948 111.330 C 227.856 110.580,228.000 110.153,228.000 108.212 C 228.000 105.854,228.103 105.684,230.948 103.330 C 231.856 102.580,232.000 102.153,232.000 100.212 C 232.000 97.854,232.103 97.684,234.948 95.330 C 235.856 94.580,236.000 94.153,236.000 92.212 C 236.000 89.854,236.103 89.684,238.948 87.330 C 239.856 86.580,240.000 86.153,240.000 84.212 C 240.000 81.854,240.103 81.684,242.948 79.330 C 243.856 78.580,244.000 78.153,244.000 76.212 C 244.000 73.861,243.942 73.960,246.848 71.343 C 247.372 70.872,248.266 69.972,248.835 69.343 C 249.404 68.714,250.349 67.809,250.935 67.330 C 251.859 66.576,252.000 66.163,252.000 64.212 C 252.000 61.854,252.103 61.684,254.948 59.330 C 255.856 58.580,256.000 58.153,256.000 56.212 C 256.000 53.854,256.103 53.684,258.948 51.330 C 259.856 50.580,260.000 50.153,260.000 48.212 C 260.000 45.854,260.103 45.684,262.948 43.330 C 263.856 42.580,264.000 42.153,264.000 40.212 C 264.000 37.854,264.103 37.684,266.948 35.330 C 267.859 34.577,268.000 34.155,268.000 32.184 C 268.000 30.130,268.121 29.805,269.243 28.854 C 269.927 28.274,270.872 27.366,271.343 26.835 C 271.814 26.304,272.714 25.404,273.343 24.835 C 273.972 24.266,274.872 23.372,275.343 22.848 C 278.101 19.786,277.584 20.000,282.212 20.000 C 286.320 20.000,286.489 20.035,287.330 21.058 " stroke="none" fill="#fcfcfc" fill-opacity="0.5" fill-rule="evenodd"></path><path id="path1" d="M0.000 200.000 L 0.000 400.000 200.000 400.000 L 400.000 400.000 400.000 200.000 L 400.000 0.000 200.000 0.000 L 0.000 0.000 0.000 200.000 M383.371 17.029 C 384.485 18.143,384.315 382.085,383.200 383.200 C 382.085 384.315,18.143 384.485,17.029 383.371 C 16.196 382.539,16.048 17.712,16.880 16.880 C 17.712 16.048,382.539 16.196,383.371 17.029 M277.082 20.948 C 276.597 21.470,275.814 22.325,275.343 22.848 C 274.872 23.372,273.972 24.266,273.343 24.835 C 272.714 25.404,271.814 26.304,271.343 26.835 C 270.872 27.366,269.927 28.274,269.243 28.854 C 268.121 29.805,268.000 30.130,268.000 32.184 C 268.000 34.155,267.859 34.577,266.948 35.330 C 264.103 37.684,264.000 37.854,264.000 40.212 C 264.000 42.153,263.856 42.580,262.948 43.330 C 260.103 45.684,260.000 45.854,260.000 48.212 C 260.000 50.153,259.856 50.580,258.948 51.330 C 256.103 53.684,256.000 53.854,256.000 56.212 C 256.000 58.153,255.856 58.580,254.948 59.330 C 252.103 61.684,252.000 61.854,252.000 64.212 C 252.000 66.163,251.859 66.576,250.935 67.330 C 250.349 67.809,249.404 68.714,248.835 69.343 C 248.266 69.972,247.372 70.872,246.848 71.343 C 243.942 73.960,244.000 73.861,244.000 76.212 C 244.000 78.153,243.856 78.580,242.948 79.330 C 240.103 81.684,240.000 81.854,240.000 84.212 C 240.000 86.153,239.856 86.580,238.948 87.330 C 236.103 89.684,236.000 89.854,236.000 92.212 C 236.000 94.153,235.856 94.580,234.948 95.330 C 232.103 97.684,232.000 97.854,232.000 100.212 C 232.000 102.153,231.856 102.580,230.948 103.330 C 228.103 105.684,228.000 105.854,228.000 108.212 C 228.000 110.153,227.856 110.580,226.948 111.330 C 224.103 113.684,224.000 113.854,224.000 116.212 C 224.000 118.163,223.859 118.576,222.935 119.330 C 222.349 119.809,221.404 120.714,220.835 121.343 C 220.266 121.972,219.372 122.872,218.848 123.343 C 215.942 125.960,216.000 125.861,216.000 128.212 C 216.000 130.153,215.856 130.580,214.948 131.330 C 212.103 133.684,212.000 133.854,212.000 136.212 C 212.000 138.153,211.856 138.580,210.948 139.330 C 208.103 141.684,208.000 141.854,208.000 144.212 C 208.000 146.153,207.856 146.580,206.948 147.330 C 204.103 149.684,204.000 149.854,204.000 152.212 C 204.000 154.153,203.856 154.580,202.948 155.330 C 200.109 157.679,200.000 157.858,200.000 160.182 C 200.000 163.243,199.213 164.000,196.029 164.000 C 192.935 164.000,192.400 163.473,192.400 160.426 C 192.400 158.200,191.194 156.000,189.974 156.000 C 189.014 156.000,188.400 154.605,188.400 152.426 C 188.400 150.200,187.194 148.000,185.974 148.000 C 185.014 148.000,184.400 146.605,184.400 144.426 C 184.400 142.032,183.412 140.375,181.652 139.816 C 181.285 139.700,180.662 139.006,180.268 138.274 C 179.874 137.543,178.977 136.610,178.276 136.202 C 176.540 135.193,176.413 134.932,176.406 132.355 C 176.400 130.202,175.170 128.000,173.974 128.000 C 173.014 128.000,172.400 126.605,172.400 124.426 C 172.400 122.032,171.412 120.375,169.652 119.816 C 169.285 119.700,168.662 119.006,168.268 118.274 C 167.874 117.543,166.977 116.610,166.276 116.202 C 164.540 115.193,164.413 114.932,164.406 112.355 C 164.400 110.202,163.170 108.000,161.974 108.000 C 161.014 108.000,160.400 106.605,160.400 104.426 C 160.400 102.032,159.412 100.375,157.652 99.816 C 157.285 99.700,156.662 99.006,156.268 98.274 C 155.874 97.543,154.977 96.610,154.276 96.202 C 152.540 95.193,152.413 94.932,152.406 92.355 C 152.400 90.202,151.170 88.000,149.974 88.000 C 149.014 88.000,148.400 86.605,148.400 84.426 C 148.400 82.032,147.412 80.375,145.652 79.816 C 145.285 79.700,144.662 79.006,144.268 78.274 C 143.874 77.543,142.977 76.610,142.276 76.202 C 140.540 75.193,140.413 74.932,140.406 72.355 C 140.400 70.202,139.170 68.000,137.974 68.000 C 137.014 68.000,136.400 66.605,136.400 64.426 C 136.400 62.200,135.194 60.000,133.974 60.000 C 133.014 60.000,132.400 58.605,132.400 56.426 C 132.400 54.032,131.412 52.375,129.652 51.816 C 129.285 51.700,128.662 51.006,128.268 50.274 C 127.874 49.543,126.977 48.610,126.276 48.202 C 124.540 47.193,124.413 46.932,124.406 44.355 C 124.400 42.202,123.170 40.000,121.974 40.000 C 121.014 40.000,120.400 38.605,120.400 36.426 C 120.400 34.032,119.412 32.375,117.652 31.816 C 117.285 31.700,116.654 30.992,116.251 30.243 C 115.848 29.494,114.906 28.552,114.157 28.149 C 113.408 27.746,112.700 27.115,112.584 26.748 C 111.899 24.591,110.510 24.000,106.127 24.000 C 101.595 24.000,102.097 23.789,99.343 26.848 C 98.872 27.372,97.927 28.274,97.243 28.854 L 96.000 29.908 96.000 34.099 C 96.000 38.266,96.822 40.400,98.426 40.400 C 99.386 40.400,100.000 41.795,100.000 43.974 C 100.000 46.200,101.206 48.400,102.426 48.400 C 103.386 48.400,104.000 49.795,104.000 51.974 C 104.000 54.368,104.988 56.025,106.748 56.584 C 107.115 56.700,107.738 57.394,108.132 58.126 C 108.526 58.857,109.423 59.790,110.124 60.198 C 111.860 61.207,111.987 61.468,111.994 64.045 C 112.000 66.198,113.230 68.400,114.426 68.400 C 115.386 68.400,116.000 69.795,116.000 71.974 C 116.000 74.200,117.206 76.400,118.426 76.400 C 119.386 76.400,120.000 77.795,120.000 79.974 C 120.000 82.368,120.988 84.025,122.748 84.584 C 123.115 84.700,123.738 85.394,124.132 86.126 C 124.526 86.857,125.423 87.790,126.124 88.198 C 127.860 89.207,127.987 89.468,127.994 92.045 C 128.000 94.198,129.230 96.400,130.426 96.400 C 131.386 96.400,132.000 97.795,132.000 99.974 C 132.000 102.368,132.988 104.025,134.748 104.584 C 135.115 104.700,135.738 105.394,136.132 106.126 C 136.526 106.857,137.423 107.790,138.124 108.198 C 139.860 109.207,139.987 109.468,139.994 112.045 C 140.000 114.198,141.230 116.400,142.426 116.400 C 143.386 116.400,144.000 117.795,144.000 119.974 C 144.000 122.368,144.988 124.025,146.748 124.584 C 147.115 124.700,147.738 125.394,148.132 126.126 C 148.526 126.857,149.423 127.790,150.124 128.198 C 151.860 129.207,151.987 129.468,151.994 132.045 C 152.000 134.198,153.230 136.400,154.426 136.400 C 155.386 136.400,156.000 137.795,156.000 139.974 C 156.000 142.368,156.988 144.025,158.748 144.584 C 159.115 144.700,159.738 145.394,160.132 146.126 C 160.526 146.857,161.423 147.790,162.124 148.198 C 163.860 149.207,163.987 149.468,163.994 152.045 C 164.000 154.198,165.230 156.400,166.426 156.400 C 167.386 156.400,168.000 157.795,168.000 159.974 C 168.000 162.200,169.206 164.400,170.426 164.400 C 171.386 164.400,172.000 165.795,172.000 167.974 C 172.000 170.368,172.988 172.025,174.748 172.584 C 175.115 172.700,175.738 173.394,176.132 174.126 C 176.526 174.857,177.423 175.790,178.124 176.198 C 179.860 177.207,179.987 177.468,179.994 180.045 C 180.000 182.198,181.230 184.400,182.426 184.400 C 184.289 184.400,184.702 189.880,182.948 191.330 C 180.103 193.684,180.000 193.854,180.000 196.212 C 180.000 198.153,179.856 198.580,178.948 199.330 C 176.103 201.684,176.000 201.854,176.000 204.212 C 176.000 206.153,175.856 206.580,174.948 207.330 C 172.103 209.684,172.000 209.854,172.000 212.212 C 172.000 214.163,171.859 214.576,170.935 215.330 C 170.349 215.809,169.404 216.714,168.835 217.343 C 168.266 217.972,167.372 218.872,166.848 219.343 C 163.942 221.960,164.000 221.861,164.000 224.212 C 164.000 226.153,163.856 226.580,162.948 227.330 C 160.103 229.684,160.000 229.854,160.000 232.212 C 160.000 234.153,159.856 234.580,158.948 235.330 C 156.103 237.684,156.000 237.854,156.000 240.212 C 156.000 242.153,155.856 242.580,154.948 243.330 C 152.103 245.684,152.000 245.854,152.000 248.212 C 152.000 250.153,151.856 250.580,150.948 251.330 C 148.103 253.684,148.000 253.854,148.000 256.212 C 148.000 258.163,147.859 258.576,146.935 259.330 C 146.349 259.809,145.404 260.714,144.835 261.343 C 144.266 261.972,143.372 262.872,142.848 263.343 C 139.942 265.960,140.000 265.861,140.000 268.212 C 140.000 270.153,139.856 270.580,138.948 271.330 C 136.103 273.684,136.000 273.854,136.000 276.212 C 136.000 278.153,135.856 278.580,134.948 279.330 C 132.103 281.684,132.000 281.854,132.000 284.212 C 132.000 286.153,131.856 286.580,130.948 287.330 C 128.103 289.684,128.000 289.854,128.000 292.212 C 128.000 294.153,127.856 294.580,126.948 295.330 C 124.103 297.684,124.000 297.854,124.000 300.212 C 124.000 302.153,123.856 302.580,122.948 303.330 C 120.103 305.684,120.000 305.854,120.000 308.212 C 120.000 310.153,119.856 310.580,118.948 311.330 C 117.780 312.297,116.633 313.416,115.343 314.848 C 114.872 315.372,113.927 316.274,113.243 316.854 C 112.121 317.805,112.000 318.130,112.000 320.184 C 112.000 322.155,111.859 322.577,110.948 323.330 C 108.103 325.684,108.000 325.854,108.000 328.212 C 108.000 330.153,107.856 330.580,106.948 331.330 C 104.103 333.684,104.000 333.854,104.000 336.212 C 104.000 338.153,103.856 338.580,102.948 339.330 C 100.103 341.684,100.000 341.854,100.000 344.212 C 100.000 346.153,99.856 346.580,98.948 347.330 C 96.103 349.684,96.000 349.854,96.000 352.212 C 96.000 354.153,95.856 354.580,94.948 355.330 C 91.883 357.866,92.000 357.595,92.000 362.127 C 92.000 366.547,92.588 367.898,94.820 368.606 C 95.226 368.735,95.665 369.174,95.794 369.580 C 97.106 373.715,106.945 373.646,108.514 369.491 C 108.661 369.101,109.101 368.661,109.491 368.514 C 110.405 368.169,112.169 366.405,112.514 365.491 C 112.661 365.101,113.101 364.661,113.491 364.514 C 115.370 363.804,116.355 362.182,116.480 359.593 C 116.576 357.594,116.760 356.993,117.385 356.642 C 119.617 355.385,120.355 354.180,120.480 351.593 C 120.576 349.594,120.760 348.993,121.385 348.642 C 123.617 347.385,124.355 346.180,124.480 343.593 C 124.576 341.594,124.760 340.993,125.385 340.642 C 127.617 339.385,128.355 338.180,128.480 335.593 C 128.576 333.594,128.760 332.993,129.385 332.642 C 131.617 331.385,132.355 330.180,132.480 327.593 C 132.576 325.594,132.760 324.993,133.385 324.642 C 134.528 323.998,136.205 322.310,136.514 321.491 C 136.661 321.101,137.101 320.661,137.491 320.514 C 139.370 319.804,140.355 318.182,140.480 315.593 C 140.576 313.594,140.760 312.993,141.385 312.642 C 143.617 311.385,144.355 310.180,144.480 307.593 C 144.576 305.594,144.760 304.993,145.385 304.642 C 147.617 303.385,148.355 302.180,148.480 299.593 C 148.576 297.594,148.760 296.993,149.385 296.642 C 151.617 295.385,152.355 294.180,152.480 291.593 C 152.576 289.594,152.760 288.993,153.385 288.642 C 155.617 287.385,156.355 286.180,156.480 283.593 C 156.576 281.594,156.760 280.993,157.385 280.642 C 159.617 279.385,160.355 278.180,160.480 275.593 C 160.576 273.594,160.760 272.993,161.385 272.642 C 162.528 271.998,164.205 270.310,164.514 269.491 C 164.661 269.101,165.101 268.661,165.491 268.514 C 167.370 267.804,168.355 266.182,168.480 263.593 C 168.576 261.594,168.760 260.993,169.385 260.642 C 171.617 259.385,172.355 258.180,172.480 255.593 C 172.576 253.594,172.760 252.993,173.385 252.642 C 175.617 251.385,176.355 250.180,176.480 247.593 C 176.576 245.594,176.760 244.993,177.385 244.642 C 179.617 243.385,180.355 242.180,180.480 239.593 C 180.576 237.594,180.760 236.993,181.385 236.642 C 183.617 235.385,184.355 234.180,184.480 231.593 C 184.576 229.594,184.760 228.993,185.385 228.642 C 186.528 227.998,188.205 226.310,188.514 225.491 C 188.661 225.101,189.101 224.661,189.491 224.514 C 191.370 223.804,192.355 222.182,192.480 219.593 C 192.576 217.594,192.760 216.993,193.385 216.642 C 194.480 216.025,196.400 214.139,196.400 213.680 C 196.400 211.910,199.108 212.223,200.124 214.111 C 200.523 214.851,201.423 215.790,202.124 216.198 C 203.860 217.207,203.987 217.468,203.994 220.045 C 204.000 222.198,205.230 224.400,206.426 224.400 C 207.386 224.400,208.000 225.795,208.000 227.974 C 208.000 230.368,208.988 232.025,210.748 232.584 C 211.115 232.700,211.738 233.394,212.132 234.126 C 212.526 234.857,213.423 235.790,214.124 236.198 C 215.860 237.207,215.987 237.468,215.994 240.045 C 216.000 242.198,217.230 244.400,218.426 244.400 C 219.386 244.400,220.000 245.795,220.000 247.974 C 220.000 250.200,221.206 252.400,222.426 252.400 C 223.386 252.400,224.000 253.795,224.000 255.974 C 224.000 258.368,224.988 260.025,226.748 260.584 C 227.115 260.700,227.738 261.394,228.132 262.126 C 228.526 262.857,229.423 263.790,230.124 264.198 C 231.860 265.207,231.987 265.468,231.994 268.045 C 232.000 270.198,233.230 272.400,234.426 272.400 C 235.386 272.400,236.000 273.795,236.000 275.974 C 236.000 278.368,236.988 280.025,238.748 280.584 C 239.115 280.700,239.738 281.394,240.132 282.126 C 240.526 282.857,241.423 283.790,242.124 284.198 C 243.860 285.207,243.987 285.468,243.994 288.045 C 244.000 290.198,245.230 292.400,246.426 292.400 C 247.386 292.400,248.000 293.795,248.000 295.974 C 248.000 298.368,248.988 300.025,250.748 300.584 C 251.115 300.700,251.750 301.417,252.159 302.177 C 252.569 302.936,253.490 303.836,254.208 304.177 C 255.772 304.919,256.000 305.426,256.000 308.158 C 256.000 310.258,257.367 312.400,258.708 312.400 C 259.494 312.400,260.000 313.848,260.000 316.099 C 260.000 318.259,261.348 320.400,262.708 320.400 C 262.963 320.400,263.380 320.805,263.635 321.300 C 264.301 322.595,266.063 324.400,266.661 324.400 C 267.492 324.400,268.000 325.802,268.000 328.099 C 268.000 330.259,269.348 332.400,270.708 332.400 C 271.494 332.400,272.000 333.848,272.000 336.099 C 272.000 338.259,273.348 340.400,274.708 340.400 C 275.494 340.400,276.000 341.848,276.000 344.099 C 276.000 346.259,277.348 348.400,278.708 348.400 C 278.963 348.400,279.380 348.805,279.635 349.300 C 280.301 350.595,282.063 352.400,282.661 352.400 C 283.492 352.400,284.000 353.802,284.000 356.099 C 284.000 358.259,285.348 360.400,286.708 360.400 C 287.494 360.400,288.000 361.848,288.000 364.099 C 288.000 366.259,289.348 368.400,290.708 368.400 C 290.963 368.400,291.380 368.805,291.635 369.300 C 292.301 370.595,294.063 372.400,294.661 372.400 C 294.942 372.400,295.380 372.805,295.635 373.300 C 297.914 377.731,306.863 377.864,308.514 373.491 C 308.661 373.101,309.101 372.661,309.491 372.514 C 313.295 371.078,313.723 360.000,309.974 360.000 C 309.014 360.000,308.400 358.605,308.400 356.426 C 308.400 354.200,307.194 352.000,305.974 352.000 C 305.016 352.000,304.400 350.605,304.400 348.435 C 304.400 346.561,304.231 345.966,303.500 345.274 C 301.089 342.990,300.131 342.038,299.354 341.158 C 298.888 340.631,298.033 339.877,297.454 339.481 C 296.519 338.844,296.400 338.501,296.400 336.440 C 296.400 333.982,295.921 333.178,293.448 331.481 C 292.520 330.845,292.400 330.496,292.400 328.440 C 292.400 325.982,291.921 325.178,289.448 323.481 C 288.521 322.845,288.400 322.496,288.400 320.445 C 288.400 318.560,288.232 317.967,287.500 317.274 C 285.089 314.990,284.131 314.038,283.354 313.158 C 282.888 312.631,282.033 311.877,281.454 311.481 C 280.519 310.844,280.400 310.501,280.400 308.440 C 280.400 305.982,279.921 305.178,277.448 303.481 C 276.521 302.845,276.400 302.496,276.400 300.445 C 276.400 298.560,276.232 297.967,275.500 297.274 C 273.089 294.990,272.131 294.038,271.354 293.158 C 270.888 292.631,270.033 291.877,269.454 291.481 C 268.519 290.844,268.400 290.501,268.400 288.440 C 268.400 285.982,267.921 285.178,265.448 283.481 C 264.521 282.845,264.400 282.496,264.400 280.445 C 264.400 278.560,264.232 277.967,263.500 277.274 C 261.089 274.990,260.131 274.038,259.354 273.158 C 258.888 272.631,258.033 271.877,257.454 271.481 C 256.519 270.844,256.400 270.501,256.400 268.440 C 256.400 266.154,255.259 264.000,254.048 264.000 C 253.016 264.000,252.400 262.663,252.400 260.426 C 252.400 258.032,251.412 256.375,249.652 255.816 C 249.285 255.700,248.662 255.006,248.268 254.274 C 247.874 253.543,246.977 252.610,246.276 252.202 C 244.540 251.193,244.413 250.932,244.406 248.355 C 244.400 246.202,243.170 244.000,241.974 244.000 C 241.014 244.000,240.400 242.605,240.400 240.426 C 240.400 238.200,239.194 236.000,237.974 236.000 C 237.014 236.000,236.400 234.605,236.400 232.426 C 236.400 230.032,235.412 228.375,233.652 227.816 C 233.285 227.700,232.662 227.006,232.268 226.274 C 231.874 225.543,230.977 224.610,230.276 224.202 C 228.540 223.193,228.413 222.932,228.406 220.355 C 228.400 218.202,227.170 216.000,225.974 216.000 C 225.014 216.000,224.400 214.605,224.400 212.426 C 224.400 210.032,223.412 208.375,221.652 207.816 C 221.285 207.700,220.662 207.006,220.268 206.274 C 219.874 205.543,218.977 204.610,218.276 204.202 C 216.540 203.193,216.413 202.932,216.406 200.355 C 216.400 198.202,215.170 196.000,213.974 196.000 C 213.014 196.000,212.400 194.605,212.400 192.426 C 212.400 189.991,211.410 188.375,209.561 187.787 C 208.136 187.335,208.239 184.400,209.680 184.400 C 210.992 184.400,212.362 182.049,212.480 179.593 C 212.576 177.594,212.760 176.993,213.385 176.642 C 214.528 175.998,216.205 174.310,216.514 173.491 C 216.661 173.101,217.101 172.661,217.491 172.514 C 219.370 171.804,220.355 170.182,220.480 167.593 C 220.576 165.594,220.760 164.993,221.385 164.642 C 223.617 163.385,224.355 162.180,224.480 159.593 C 224.576 157.594,224.760 156.993,225.385 156.642 C 227.617 155.385,228.355 154.180,228.480 151.593 C 228.576 149.594,228.760 148.993,229.385 148.642 C 231.617 147.385,232.355 146.180,232.480 143.593 C 232.576 141.594,232.760 140.993,233.385 140.642 C 235.617 139.385,236.355 138.180,236.480 135.593 C 236.576 133.594,236.760 132.993,237.385 132.642 C 238.528 131.998,240.205 130.310,240.514 129.491 C 240.661 129.101,241.101 128.661,241.491 128.514 C 243.370 127.804,244.355 126.182,244.480 123.593 C 244.576 121.594,244.760 120.993,245.385 120.642 C 247.617 119.385,248.355 118.180,248.480 115.593 C 248.576 113.594,248.760 112.993,249.385 112.642 C 251.617 111.385,252.355 110.180,252.480 107.593 C 252.576 105.594,252.760 104.993,253.385 104.642 C 255.617 103.385,256.355 102.180,256.480 99.593 C 256.576 97.594,256.760 96.993,257.385 96.642 C 259.617 95.385,260.355 94.180,260.480 91.593 C 260.576 89.594,260.760 88.993,261.385 88.642 C 263.617 87.385,264.355 86.180,264.480 83.593 C 264.576 81.594,264.760 80.993,265.385 80.642 C 266.528 79.998,268.205 78.310,268.514 77.491 C 268.661 77.101,269.101 76.661,269.491 76.514 C 271.370 75.804,272.355 74.182,272.480 71.593 C 272.576 69.594,272.760 68.993,273.385 68.642 C 275.617 67.385,276.355 66.180,276.480 63.593 C 276.576 61.594,276.760 60.993,277.385 60.642 C 279.617 59.385,280.355 58.180,280.480 55.593 C 280.576 53.594,280.760 52.993,281.385 52.642 C 283.617 51.385,284.355 50.180,284.480 47.593 C 284.576 45.594,284.760 44.993,285.385 44.642 C 287.617 43.385,288.355 42.180,288.480 39.593 C 288.576 37.594,288.760 36.993,289.385 36.642 C 292.569 34.849,293.924 27.570,291.500 25.274 C 288.925 22.834,288.124 22.024,287.330 21.058 C 286.054 19.505,278.500 19.424,277.082 20.948 " stroke="none" fill="#040404" fill-rule="evenodd"></path></g></svg>