<svg id="svg" version="1.1" xmlns="http://www.w3.org/2000/svg" xmlns:xlink="http://www.w3.org/1999/xlink" width="400" height="400" viewBox="0, 0, 400,400"><g id="svgg"><path id="path0" d="M0.000 200.000 L 0.000 400.000 200.000 400.000 L 400.000 400.000 400.000 200.000 L 400.000 0.000 200.000 0.000 L 0.000 0.000 0.000 200.000 M379.371 21.029 C 380.485 22.143,380.315 378.085,379.200 379.200 C 378.085 380.315,22.143 380.485,21.029 379.371 C 20.064 378.407,20.064 21.993,21.029 21.029 C 21.993 20.064,378.407 20.064,379.371 21.029 M103.754 144.334 C 100.118 144.828,99.715 145.660,101.928 148.109 C 102.768 149.039,103.785 150.520,104.189 151.400 C 104.592 152.280,105.515 153.695,106.239 154.546 C 106.963 155.396,107.907 156.836,108.337 157.746 C 108.767 158.655,109.603 159.850,110.194 160.400 C 110.785 160.950,111.638 162.210,112.089 163.200 C 112.541 164.190,113.505 165.695,114.232 166.546 C 114.960 167.396,115.907 168.836,116.337 169.746 C 116.767 170.655,117.603 171.850,118.194 172.400 C 118.785 172.950,119.638 174.210,120.089 175.200 C 120.541 176.190,121.505 177.695,122.232 178.546 C 122.960 179.396,123.907 180.836,124.337 181.746 C 124.767 182.655,125.603 183.850,126.194 184.400 C 126.785 184.950,127.638 186.210,128.089 187.200 C 128.541 188.190,129.505 189.695,130.232 190.546 C 130.960 191.396,131.907 192.836,132.337 193.746 C 132.767 194.655,133.603 195.850,134.194 196.400 C 134.785 196.950,135.633 198.210,136.078 199.200 C 136.523 200.190,137.194 201.360,137.569 201.800 C 137.945 202.240,138.580 203.360,138.982 204.289 L 139.712 205.978 138.556 207.416 C 137.920 208.206,137.129 209.336,136.797 209.927 C 135.522 212.197,134.214 214.216,133.770 214.600 C 133.516 214.820,132.878 215.809,132.354 216.798 C 131.309 218.767,131.117 219.036,129.500 220.796 C 128.895 221.454,128.400 222.178,128.400 222.405 C 128.400 222.946,126.341 226.114,125.740 226.500 C 125.482 226.665,124.859 227.655,124.354 228.700 C 123.391 230.694,123.267 230.872,121.500 232.796 C 120.895 233.454,120.400 234.178,120.400 234.405 C 120.400 234.951,118.338 238.117,117.729 238.506 C 117.466 238.674,116.834 239.664,116.325 240.706 C 115.327 242.749,115.045 243.169,113.763 244.519 C 113.303 245.003,112.335 246.480,111.611 247.800 C 110.887 249.120,110.060 250.338,109.773 250.506 C 109.485 250.674,108.834 251.664,108.325 252.706 C 107.327 254.749,107.045 255.169,105.763 256.519 C 105.303 257.003,104.332 258.480,103.605 259.800 C 102.879 261.120,101.983 262.412,101.616 262.671 C 101.248 262.930,100.602 263.920,100.179 264.871 C 99.356 266.722,99.209 266.936,97.463 268.835 C 95.948 270.481,96.726 271.269,100.588 271.998 C 107.478 273.298,116.400 271.867,116.400 269.462 C 116.400 269.249,117.104 268.157,117.964 267.037 C 118.825 265.917,119.860 264.280,120.264 263.400 C 120.669 262.520,121.524 261.262,122.165 260.604 C 122.805 259.947,123.686 258.604,124.121 257.620 C 124.556 256.636,125.158 255.585,125.458 255.285 C 126.493 254.250,128.355 251.320,128.601 250.337 C 128.737 249.795,129.368 248.861,130.003 248.262 C 130.638 247.662,131.568 246.323,132.069 245.286 C 132.570 244.249,133.505 242.780,134.147 242.021 C 134.788 241.263,135.718 239.733,136.213 238.621 C 136.708 237.510,137.573 236.205,138.135 235.721 C 138.697 235.238,139.597 233.888,140.135 232.721 C 140.673 231.555,141.592 230.060,142.177 229.400 C 142.762 228.740,143.606 227.413,144.053 226.450 C 144.500 225.488,146.011 223.509,147.410 222.053 L 149.955 219.407 151.177 220.578 C 151.850 221.223,152.400 222.004,152.400 222.314 C 152.400 222.625,152.928 223.372,153.573 223.975 C 154.219 224.578,155.328 226.225,156.038 227.636 C 156.748 229.046,157.761 230.641,158.289 231.179 C 158.817 231.717,159.679 233.098,160.205 234.248 C 160.731 235.398,161.431 236.489,161.760 236.674 C 162.090 236.858,163.012 238.267,163.810 239.805 C 164.607 241.342,165.777 243.140,166.409 243.800 C 167.042 244.460,167.860 245.720,168.227 246.600 C 168.593 247.480,169.391 248.766,169.998 249.458 C 170.605 250.150,171.529 251.587,172.051 252.652 C 172.573 253.716,173.510 255.127,174.133 255.787 C 174.755 256.447,175.635 257.800,176.088 258.793 C 176.540 259.787,177.203 260.870,177.561 261.200 C 178.529 262.093,180.400 265.098,180.400 265.761 C 180.400 266.078,180.901 266.847,181.514 267.469 C 182.127 268.091,183.041 269.188,183.546 269.906 C 185.087 272.101,186.127 272.400,192.219 272.400 C 200.535 272.400,204.015 271.138,201.905 268.886 C 201.346 268.288,200.501 267.027,200.027 266.083 C 199.553 265.138,198.721 263.978,198.177 263.505 C 197.633 263.032,196.767 261.727,196.253 260.604 C 195.740 259.482,194.777 257.942,194.113 257.182 C 193.450 256.422,192.516 255.027,192.037 254.083 C 191.558 253.138,190.721 251.978,190.177 251.505 C 189.633 251.032,188.767 249.727,188.253 248.604 C 187.740 247.482,186.777 245.942,186.113 245.182 C 185.450 244.422,184.516 243.027,184.037 242.083 C 183.558 241.138,182.721 239.978,182.177 239.505 C 181.633 239.032,180.767 237.727,180.253 236.604 C 179.740 235.482,178.777 233.942,178.113 233.182 C 177.450 232.422,176.516 231.027,176.037 230.083 C 175.558 229.138,174.721 227.978,174.177 227.505 C 173.633 227.032,172.767 225.727,172.253 224.604 C 171.740 223.482,170.777 221.942,170.113 221.182 C 169.450 220.422,168.516 219.027,168.037 218.083 C 167.558 217.138,166.721 215.978,166.177 215.505 C 165.633 215.032,164.768 213.735,164.255 212.623 C 163.742 211.510,162.665 209.818,161.861 208.862 C 159.635 206.214,159.933 203.362,162.775 200.133 C 163.669 199.118,164.400 198.043,164.400 197.745 C 164.400 197.446,165.021 196.515,165.779 195.676 C 166.537 194.837,167.646 193.171,168.243 191.975 C 168.840 190.779,170.019 189.010,170.864 188.044 C 171.709 187.078,172.400 186.043,172.400 185.745 C 172.400 185.446,173.021 184.515,173.779 183.676 C 174.537 182.837,175.646 181.171,176.243 179.975 C 176.840 178.779,178.019 177.010,178.864 176.044 C 179.709 175.078,180.400 174.043,180.400 173.745 C 180.400 173.446,181.021 172.515,181.779 171.676 C 182.537 170.837,183.646 169.171,184.243 167.975 C 184.840 166.779,186.019 165.010,186.864 164.044 C 187.709 163.078,188.400 162.043,188.400 161.745 C 188.400 161.446,189.021 160.515,189.779 159.676 C 190.537 158.837,191.646 157.171,192.243 155.975 C 192.840 154.779,194.019 153.010,194.864 152.044 C 195.709 151.078,196.400 150.043,196.400 149.745 C 196.400 149.446,197.013 148.524,197.763 147.694 C 200.330 144.853,196.968 143.710,187.214 144.110 C 180.772 144.374,180.900 144.332,179.462 146.605 C 178.838 147.592,178.170 148.400,177.980 148.400 C 177.789 148.400,176.981 149.705,176.186 151.300 C 175.390 152.895,174.342 154.560,173.858 155.000 C 173.373 155.440,172.629 156.589,172.204 157.553 C 171.779 158.517,170.839 159.915,170.115 160.660 C 169.392 161.405,168.800 162.111,168.800 162.229 C 168.800 162.959,167.011 166.155,165.976 167.273 C 165.301 168.003,164.490 169.206,164.175 169.946 C 163.860 170.686,163.051 171.920,162.377 172.688 C 161.702 173.456,160.725 175.014,160.205 176.152 C 159.685 177.289,158.716 178.788,158.052 179.483 C 157.388 180.178,156.484 181.523,156.043 182.473 C 155.602 183.423,154.773 184.733,154.202 185.384 C 153.630 186.035,152.620 187.516,151.957 188.675 C 150.449 191.311,150.226 191.443,149.189 190.315 C 148.727 189.812,147.669 188.680,146.837 187.800 C 146.005 186.920,144.739 185.034,144.023 183.610 C 143.306 182.185,142.369 180.773,141.938 180.472 C 141.508 180.171,140.743 178.989,140.238 177.847 C 139.732 176.704,138.821 175.237,138.213 174.585 C 137.605 173.933,136.693 172.500,136.187 171.400 C 135.681 170.300,134.782 168.950,134.190 168.400 C 133.598 167.850,132.709 166.490,132.214 165.379 C 131.719 164.267,130.771 162.737,130.109 161.979 C 129.446 161.220,128.536 159.790,128.086 158.800 C 127.637 157.810,126.783 156.550,126.190 156.000 C 125.597 155.450,124.676 154.056,124.145 152.901 C 123.613 151.747,122.669 150.217,122.047 149.501 C 121.425 148.786,120.597 147.519,120.206 146.686 C 119.815 145.854,119.141 144.983,118.708 144.751 C 117.768 144.248,106.665 143.938,103.754 144.334 M265.146 144.577 C 264.567 144.907,263.718 145.812,263.260 146.589 C 262.802 147.365,262.260 148.000,262.055 148.000 C 261.851 148.000,261.083 148.945,260.349 150.100 C 259.615 151.255,258.845 152.270,258.638 152.356 C 258.431 152.442,257.456 153.387,256.471 154.456 C 255.486 155.525,254.459 156.400,254.187 156.400 C 253.916 156.400,252.998 157.087,252.147 157.928 C 251.296 158.768,249.793 159.773,248.808 160.161 C 247.822 160.550,246.202 161.461,245.208 162.188 C 244.027 163.050,242.359 163.754,240.400 164.217 C 238.750 164.606,236.590 165.326,235.600 165.815 C 233.648 166.780,231.379 167.295,225.800 168.041 C 220.819 168.708,220.800 168.731,220.800 174.276 C 220.800 180.732,222.445 182.395,227.723 181.277 C 228.865 181.035,231.060 180.719,232.600 180.576 C 237.358 180.131,240.698 179.181,243.600 177.446 C 244.150 177.117,245.680 176.539,247.000 176.161 C 249.076 175.567,251.752 174.078,252.404 173.153 C 252.516 172.994,253.099 172.740,253.699 172.590 C 254.299 172.439,255.534 171.594,256.442 170.713 C 257.351 169.831,258.745 168.930,259.541 168.710 C 260.336 168.490,261.240 167.949,261.550 167.508 C 262.094 166.731,262.130 166.747,262.656 167.998 C 263.373 169.704,263.472 254.165,262.759 255.731 C 261.579 258.320,260.980 258.400,242.806 258.400 C 221.441 258.400,221.480 258.385,221.686 266.234 L 221.800 270.595 224.000 271.485 L 226.200 272.375 268.162 272.388 L 310.124 272.400 311.462 271.380 L 312.800 270.359 312.800 266.069 C 312.800 261.679,312.689 261.290,310.820 259.100 C 310.271 258.458,309.050 258.400,295.985 258.400 L 281.748 258.400 280.974 256.900 C 280.223 255.444,280.194 253.793,280.000 200.320 C 279.845 157.736,279.689 145.129,279.312 144.752 C 278.518 143.958,266.493 143.809,265.146 144.577 " stroke="none" fill="#040404" fill-rule="evenodd"></path><path id="path1" d="M21.029 21.029 C 20.064 21.993,20.064 378.407,21.029 379.371 C 22.143 380.485,378.085 380.315,379.200 379.200 C 380.315 378.085,380.485 22.143,379.371 21.029 C 378.407 20.064,21.993 20.064,21.029 21.029 M118.708 144.751 C 119.141 144.983,119.815 145.854,120.206 146.686 C 120.597 147.519,121.425 148.786,122.047 149.501 C 122.669 150.217,123.613 151.747,124.145 152.901 C 124.676 154.056,125.597 155.450,126.190 156.000 C 126.783 156.550,127.637 157.810,128.086 158.800 C 128.536 159.790,129.446 161.220,130.109 161.979 C 130.771 162.737,131.719 164.267,132.214 165.379 C 132.709 166.490,133.598 167.850,134.190 168.400 C 134.782 168.950,135.681 170.300,136.187 171.400 C 136.693 172.500,137.605 173.933,138.213 174.585 C 138.821 175.237,139.732 176.704,140.238 177.847 C 140.743 178.989,141.508 180.171,141.938 180.472 C 142.369 180.773,143.306 182.185,144.023 183.610 C 144.739 185.034,146.005 186.920,146.837 187.800 C 147.669 188.680,148.727 189.812,149.189 190.315 C 150.226 191.443,150.449 191.311,151.957 188.675 C 152.620 187.516,153.630 186.035,154.202 185.384 C 154.773 184.733,155.602 183.423,156.043 182.473 C 156.484 181.523,157.388 180.178,158.052 179.483 C 158.716 178.788,159.685 177.289,160.205 176.152 C 160.725 175.014,161.702 173.456,162.377 172.688 C 163.051 171.920,163.860 170.686,164.175 169.946 C 164.490 169.206,165.301 168.003,165.976 167.273 C 167.011 166.155,168.800 162.959,168.800 162.229 C 168.800 162.111,169.392 161.405,170.115 160.660 C 170.839 159.915,171.779 158.517,172.204 157.553 C 172.629 156.589,173.373 155.440,173.858 155.000 C 174.342 154.560,175.390 152.895,176.186 151.300 C 176.981 149.705,177.789 148.400,177.980 148.400 C 178.170 148.400,178.838 147.592,179.462 146.605 C 180.900 144.332,180.772 144.374,187.214 144.110 C 196.968 143.710,200.330 144.853,197.763 147.694 C 197.013 148.524,196.400 149.446,196.400 149.745 C 196.400 150.043,195.709 151.078,194.864 152.044 C 194.019 153.010,192.840 154.779,192.243 155.975 C 191.646 157.171,190.537 158.837,189.779 159.676 C 189.021 160.515,188.400 161.446,188.400 161.745 C 188.400 162.043,187.709 163.078,186.864 164.044 C 186.019 165.010,184.840 166.779,184.243 167.975 C 183.646 169.171,182.537 170.837,181.779 171.676 C 181.021 172.515,180.400 173.446,180.400 173.745 C 180.400 174.043,179.709 175.078,178.864 176.044 C 178.019 177.010,176.840 178.779,176.243 179.975 C 175.646 181.171,174.537 182.837,173.779 183.676 C 173.021 184.515,172.400 185.446,172.400 185.745 C 172.400 186.043,171.709 187.078,170.864 188.044 C 170.019 189.010,168.840 190.779,168.243 191.975 C 167.646 193.171,166.537 194.837,165.779 195.676 C 165.021 196.515,164.400 197.446,164.400 197.745 C 164.400 198.043,163.669 199.118,162.775 200.133 C 159.933 203.362,159.635 206.214,161.861 208.862 C 162.665 209.818,163.742 211.510,164.255 212.623 C 164.768 213.735,165.633 215.032,166.177 215.505 C 166.721 215.978,167.558 217.138,168.037 218.083 C 168.516 219.027,169.450 220.422,170.113 221.182 C 170.777 221.942,171.740 223.482,172.253 224.604 C 172.767 225.727,173.633 227.032,174.177 227.505 C 174.721 227.978,175.558 229.138,176.037 230.083 C 176.516 231.027,177.450 232.422,178.113 233.182 C 178.777 233.942,179.740 235.482,180.253 236.604 C 180.767 237.727,181.633 239.032,182.177 239.505 C 182.721 239.978,183.558 241.138,184.037 242.083 C 184.516 243.027,185.450 244.422,186.113 245.182 C 186.777 245.942,187.740 247.482,188.253 248.604 C 188.767 249.727,189.633 251.032,190.177 251.505 C 190.721 251.978,191.558 253.138,192.037 254.083 C 192.516 255.027,193.450 256.422,194.113 257.182 C 194.777 257.942,195.740 259.482,196.253 260.604 C 196.767 261.727,197.633 263.032,198.177 263.505 C 198.721 263.978,199.553 265.138,200.027 266.083 C 200.501 267.027,201.346 268.288,201.905 268.886 C 204.015 271.138,200.535 272.400,192.219 272.400 C 186.127 272.400,185.087 272.101,183.546 269.906 C 183.041 269.188,182.127 268.091,181.514 267.469 C 180.901 266.847,180.400 266.078,180.400 265.761 C 180.400 265.098,178.529 262.093,177.561 261.200 C 177.203 260.870,176.540 259.787,176.088 258.793 C 175.635 257.800,174.755 256.447,174.133 255.787 C 173.510 255.127,172.573 253.716,172.051 252.652 C 171.529 251.587,170.605 250.150,169.998 249.458 C 169.391 248.766,168.593 247.480,168.227 246.600 C 167.860 245.720,167.042 244.460,166.409 243.800 C 165.777 243.140,164.607 241.342,163.810 239.805 C 163.012 238.267,162.090 236.858,161.760 236.674 C 161.431 236.489,160.731 235.398,160.205 234.248 C 159.679 233.098,158.817 231.717,158.289 231.179 C 157.761 230.641,156.748 229.046,156.038 227.636 C 155.328 226.225,154.219 224.578,153.573 223.975 C 152.928 223.372,152.400 222.625,152.400 222.314 C 152.400 222.004,151.850 221.223,151.177 220.578 L 149.955 219.407 147.410 222.053 C 146.011 223.509,144.500 225.488,144.053 226.450 C 143.606 227.413,142.762 228.740,142.177 229.400 C 141.592 230.060,140.673 231.555,140.135 232.721 C 139.597 233.888,138.697 235.238,138.135 235.721 C 137.573 236.205,136.708 237.510,136.213 238.621 C 135.718 239.733,134.788 241.263,134.147 242.021 C 133.505 242.780,132.570 244.249,132.069 245.286 C 131.568 246.323,130.638 247.662,130.003 248.262 C 129.368 248.861,128.737 249.795,128.601 250.337 C 128.355 251.320,126.493 254.250,125.458 255.285 C 125.158 255.585,124.556 256.636,124.121 257.620 C 123.686 258.604,122.805 259.947,122.165 260.604 C 121.524 261.262,120.669 262.520,120.264 263.400 C 119.860 264.280,118.825 265.917,117.964 267.037 C 117.104 268.157,116.400 269.249,116.400 269.462 C 116.400 271.867,107.478 273.298,100.588 271.998 C 96.726 271.269,95.948 270.481,97.463 268.835 C 99.209 266.936,99.356 266.722,100.179 264.871 C 100.602 263.920,101.248 262.930,101.616 262.671 C 101.983 262.412,102.879 261.120,103.605 259.800 C 104.332 258.480,105.303 257.003,105.763 256.519 C 107.045 255.169,107.327 254.749,108.325 252.706 C 108.834 251.664,109.485 250.674,109.773 250.506 C 110.060 250.338,110.887 249.120,111.611 247.800 C 112.335 246.480,113.303 245.003,113.763 244.519 C 115.045 243.169,115.327 242.749,116.325 240.706 C 116.834 239.664,117.466 238.674,117.729 238.506 C 118.338 238.117,120.400 234.951,120.400 234.405 C 120.400 234.178,120.895 233.454,121.500 232.796 C 123.267 230.872,123.391 230.694,124.354 228.700 C 124.859 227.655,125.482 226.665,125.740 226.500 C 126.341 226.114,128.400 222.946,128.400 222.405 C 128.400 222.178,128.895 221.454,129.500 220.796 C 131.117 219.036,131.309 218.767,132.354 216.798 C 132.878 215.809,133.516 214.820,133.770 214.600 C 134.214 214.216,135.522 212.197,136.797 209.927 C 137.129 209.336,137.920 208.206,138.556 207.416 L 139.712 205.978 138.982 204.289 C 138.580 203.360,137.945 202.240,137.569 201.800 C 137.194 201.360,136.523 200.190,136.078 199.200 C 135.633 198.210,134.785 196.950,134.194 196.400 C 133.603 195.850,132.767 194.655,132.337 193.746 C 131.907 192.836,130.960 191.396,130.232 190.546 C 129.505 189.695,128.541 188.190,128.089 187.200 C 127.638 186.210,126.785 184.950,126.194 184.400 C 125.603 183.850,124.767 182.655,124.337 181.746 C 123.907 180.836,122.960 179.396,122.232 178.546 C 121.505 177.695,120.541 176.190,120.089 175.200 C 119.638 174.210,118.785 172.950,118.194 172.400 C 117.603 171.850,116.767 170.655,116.337 169.746 C 115.907 168.836,114.960 167.396,114.232 166.546 C 113.505 165.695,112.541 164.190,112.089 163.200 C 111.638 162.210,110.785 160.950,110.194 160.400 C 109.603 159.850,108.767 158.655,108.337 157.746 C 107.907 156.836,106.963 155.396,106.239 154.546 C 105.515 153.695,104.592 152.280,104.189 151.400 C 103.785 150.520,102.768 149.039,101.928 148.109 C 99.715 145.660,100.118 144.828,103.754 144.334 C 106.665 143.938,117.768 144.248,118.708 144.751 M279.312 144.752 C 279.689 145.129,279.845 157.736,280.000 200.320 C 280.194 253.793,280.223 255.444,280.974 256.900 L 281.748 258.400 295.985 258.400 C 309.050 258.400,310.271 258.458,310.820 259.100 C 312.689 261.290,312.800 261.679,312.800 266.069 L 312.800 270.359 311.462 271.380 L 310.124 272.400 268.162 272.388 L 226.200 272.375 224.000 271.485 L 221.800 270.595 221.686 266.234 C 221.480 258.385,221.441 258.400,242.806 258.400 C 260.980 258.400,261.579 258.320,262.759 255.731 C 263.472 254.165,263.373 169.704,262.656 167.998 C 262.130 166.747,262.094 166.731,261.550 167.508 C 261.240 167.949,260.336 168.490,259.541 168.710 C 258.745 168.930,257.351 169.831,256.442 170.713 C 255.534 171.594,254.299 172.439,253.699 172.590 C 253.099 172.740,252.516 172.994,252.404 173.153 C 251.752 174.078,249.076 175.567,247.000 176.161 C 245.680 176.539,244.150 177.117,243.600 177.446 C 240.698 179.181,237.358 180.131,232.600 180.576 C 231.060 180.719,228.865 181.035,227.723 181.277 C 222.445 182.395,220.800 180.732,220.800 174.276 C 220.800 168.731,220.819 168.708,225.800 168.041 C 231.379 167.295,233.648 166.780,235.600 165.815 C 236.590 165.326,238.750 164.606,240.400 164.217 C 242.359 163.754,244.027 163.050,245.208 162.188 C 246.202 161.461,247.822 160.550,248.808 160.161 C 249.793 159.773,251.296 158.768,252.147 157.928 C 252.998 157.087,253.916 156.400,254.187 156.400 C 254.459 156.400,255.486 155.525,256.471 154.456 C 257.456 153.387,258.431 152.442,258.638 152.356 C 258.845 152.270,259.615 151.255,260.349 150.100 C 261.083 148.945,261.851 148.000,262.055 148.000 C 262.260 148.000,262.802 147.365,263.260 146.589 C 264.699 144.149,265.413 143.958,272.512 144.120 C 276.771 144.217,278.983 144.423,279.312 144.752 " stroke="none" fill="#3404fc" fill-rule="evenodd"></path></g></svg>